<svg xmlns="http://www.w3.org/2000/svg" viewBox="0 0 1969.78 1615.24">
    <title>marketlines</title>
                <polyline points="1373.5 928.46 1426 1211.24 1459 1364.24 1485 1137.24 1550 1014.24 1612 983.24 1612 861.24 1654 819.24 1691 721.24 1706 808.24 1735 750.24 1817 682.24 1943 386.24" fill="none" stroke="lime" stroke-linecap="round" stroke-linejoin="round" stroke-width="10" />
            <polyline points="5 1610.24 56 1565.24 74 1587.24 124 1537.24 148 1588.24 160 1559.24 248 1573.24 275 1537.24 339 1537.24 361 1553.24 373 1524.24 410 1471.24 427 1512.24 465 1512.24 488 1453.24 531 1496.24 578 1547.24 601 1477.24 644 1489.24 669 1464.24 719 1432.24 736 1496.24 789 1465.24 838 1521.24 880 1588.24 924 1512.24 937 1418.24 953 1446.24 998 1536.24 1051 1418.24 1084 1514.24 1133 1346.24 1133 1145.24 1223 1324.24 1260 1223.24 1291 1276.24 1344 1154.24 1366.55 928.75" fill="none" stroke="#000" stroke-linecap="round" stroke-linejoin="round" stroke-width="10" />
            <path d="M1371.89,14.52l47.8,714.63a3.17,3.17,0,0,0,6.3.08l20.83-172.12a3.17,3.17,0,0,1,6.25-.27l20.39,97.62a3.17,3.17,0,0,0,5.66,1.23l42.52-58.08a3.17,3.17,0,0,1,5.73,1.88V879.75a3.17,3.17,0,0,0,6.26.72l40.2-171.88a3.17,3.17,0,0,1,6.26.56l24,464.74a3.17,3.17,0,0,0,6.3.34L1642,978.18a3.11,3.11,0,0,1,.23-.79l45.33-101.73a3.17,3.17,0,0,1,6.07,1.29v162.84a3.17,3.17,0,0,0,6.21.91l61.49-206.39a3.17,3.17,0,0,1,6.2.73l19.62,355.72a3.17,3.17,0,0,0,6.06,1.13l57.35-127a3.17,3.17,0,0,1,6,.65l108.24,513" fill="none" stroke="red" stroke-linecap="round" stroke-linejoin="round" stroke-width="10" />
            <path d="M70.22,218.34l26.55-59.65a3.18,3.18,0,0,1,5.17-.93l26.28,27a3.16,3.16,0,0,0,3.61.66l65.56-30.61a3.1,3.1,0,0,0,1.35-1.21l17.31-28a3.17,3.17,0,0,1,5.36,0l56.14,87.49a3.16,3.16,0,0,0,5.62-.57l15.37-39.92a3.17,3.17,0,0,1,3.87-1.9L342,182.46a3.16,3.16,0,0,0,3.37-1.05l24.29-30.11a3.17,3.17,0,0,1,4.39-.53l50.16,38.35a3.2,3.2,0,0,0,1.65.64l35.93,3A3.16,3.16,0,0,0,465,190.9l28.54-65.72a3.17,3.17,0,0,1,4.91-1.2l55.2,44.94a3.17,3.17,0,0,0,2.55.67l270.4-47.89a3.19,3.19,0,0,0,2.52-2.32L844,63.08A3.16,3.16,0,0,1,847,60.72h39.41a3.18,3.18,0,0,1,3.11,2.56l30.59,154.94a2,2,0,0,0,0,.24l53.71,192.47a3.17,3.17,0,0,0,6.12-.05l43.86-168.23a3.18,3.18,0,0,1,1.29-1.84l60.21-40.52a3.18,3.18,0,0,0,1.32-1.9L1113,86.51a3.48,3.48,0,0,1,.32-.83l44.4-79.06a3.17,3.17,0,0,1,5.88,1l17,91.23a3.29,3.29,0,0,0,.32.91l66.05,124.38a3.17,3.17,0,0,0,5.89-.76l25.86-109.92a3.17,3.17,0,0,1,6.19.1l33.51,166.19a3.63,3.63,0,0,0,.21.66l40.91,92.82a3.17,3.17,0,0,0,6.07-1.28V14.82" fill="none" stroke="#000" stroke-linecap="round" stroke-linejoin="round" stroke-width="10" />
</svg>
