<svg xmlns="http://www.w3.org/2000/svg" viewBox="0 0 1371.55 691.49"><title>prezoom</title><g id="Layer_2" data-name="Layer 2"><g id="Layer_4" data-name="Layer 4"><polyline points="5 686.49 56 641.49 74 663.49 124 613.49 148 664.49 160 635.49 248 649.49 275 613.49 339 613.49 361 629.49 373 600.49 410 547.49 427 588.49 465 588.49 488 529.49 531 572.49 578 623.49 601 553.49 644 565.49 669 540.49 719 508.49 736 572.49 789 541.49 838 597.49 880 664.49 924 588.49 937 494.49 953 522.49 998 612.49 1051 494.49 1084 590.49 1133 422.49 1133 221.49 1223 400.49 1260 299.49 1291 352.49 1344 230.49 1366.55 5" fill="none" stroke="#000" stroke-linecap="round" stroke-linejoin="round" stroke-width="10"/></g></g></svg>