<svg xmlns="http://www.w3.org/2000/svg" viewBox="0 0 2022.14 702.79"><title>sp_1</title><g id="Layer_2" data-name="Layer 2"><g id="Layer_3" data-name="Layer 3"><path d="M2.5,366.66c6.65-19.2,18.51-36.52,24.4-56L34.81,308c1.84,5.65,1.17,5.45,4.66,8,3.42,17.78,4.07,34.48,4.08,52.8,8.23-2.46,13.51-8.11,21.39-11.27,3.29-10.1,6.45-20.37,7.81-31,8.37-5.69,7.55-12.54,16.71-17.94,3.14,9.75,6,19.21,7.3,29.4l7,4.37c3.24,2,26.28-46.35,27.81-52.37L142,287c6.23,11.83,11.23,25.52,13,39L165.42,329c7.55-8.6,15.41-16.18,19-27.37l6.71-1.89c1.79,8.76,1.89,17.21,2,26.13l8.79,2.66,1.62-5c10.55-6.69,15-7.38,19-19,6.32-2,6-1.89,9.57-6.61,2.75,2.6,6.22,7,9.58,9.28.71,6.06,1.17,12.07,1.54,18.16,14.84-4.79,19.41-19.05,27.71-31.62l11,3.88c2,8.58,2,17.06,2.29,25.84,10.06-8.71,14.92-19.84,21-31.72l7.09-1.2,3.07-4.81,7.72-1c2.4,13.47,1.84,27,1.85,40.7,8.54-4.07,14.19-11.6,23-15.72,3.38,4.12,4.77,6,6.5,10.5l6,1.66c7.16-9.33,15.6-24.67,24.86-30.76,1.3-11.36,2.35-21.62,8-31.76A54.61,54.61,0,0,1,395,267c3,.21,18.46,28.21,25.14,44.23,3.86-3.31,7.29-7,11.55-9.79,5.09-31.92,17.81-44.8,38.73-67.78,14.43-.35,20,10.2,24.82,23.76l10.18,1.8c8.07-12.42,15.89-24.2,19.38-38.72l10.11-3.4c16.94,23.36,14.86,55.84,18.73,84.39l8,3.84,4.84-3.14.59-3.74a5.75,5.75,0,0,0-2.82,1.3l5.92-5.09c1.19-22.16.89-44.32.92-66.5l8.59-1.72c5.72,6.6,7.94,12.82,9.89,21.41,4.71,2.91,5.1,2.79,7.22,6.55l9.68,1.28c4.39-18.17,4.66-33.88,13-50,8.26,18.88,16.5,42.8,19,63.11l9,7.3c29.93-24.41,32.15-60.68,32.21-98,15.57,25,26.64,53.08,58.39,62.54,7.25-7.74,16.78-16.42,22.94-25.17l9.45-1.18c4.15,4.88,7.21,9.32,9.19,15.42l7.66,1.91c4.18-10.25,7.75-19.68,14.44-28.62,3,6.05,7.25,12.17,9.42,18.54,4.46.75,9.41,2.76,13.76,3.25l.35-.5c-2-3.65.87,3.22,9.87,4.22C831,224,833.71,227,838,231.79c10.08-6.68,15.38-6.3,28-6.51,2.46,3.82,5.26,6.74,7.58,10.41,2.54.32,5.4.83,8.08,1,9-12.37,12.63-24.36,16.7-38.82,3.09-.8,6.18-1.59,9.26-2.4,4.8,3.32,9.57,6.07,14.54,9.08l5.74-2.14c4.78-12.15,8.84-13.68,16.89-23.5,3.09-.37,6.21-.7,9.29-1.16a51.79,51.79,0,0,0,7.24-14.52q4.54,1.51,9.1,3A383.32,383.32,0,0,0,982,217.76c18.32-5.12,12.67-18.36,24.94-28,.74-6.61,1.08-13.12,1.39-19.75,3.75-.75,7.3-1.3,11.07-1.71,2.48-6.56,3.36-11.94,4.08-18.81,2.39,11.7,2.61,22.84,2.84,34.75,9.15-6.88,15.71-15.74,26.16-20.42,3.87,2.49,7.51,5.2,11.86,6.77,1,2.55,1.84,5,2.86,7.47,3.06.46,6.1.92,9.16,1.35,2.93-10.93,5.81-19.54,7.11-30.85a82.09,82.09,0,0,0,9.37,14.76c2-.45,4.06-.89,6.09-1.36,6.06-9.67,11.46-17.79,14.88-28.59,5.81,9.38,11,19.12,18.33,27.44,12.39-17,21.42-36.57,36-52,10.16,22.9,20.71,50.55,25,75.5,12.33,5.86,16.91,13.31,30.92,14.59,26.16-38.52,28.85-59.2,28.06-104.42,9.83,12,20.46,21.53,31.71,32.29,8.44-10.71,13.32-23.72,19.63-35.93q2.48,5.11,5,10.22l6.1,1c6.23-5.46,9.78-10,12.55-17.82,7.85,3.19,11.58,8,15,16,8.29-10.68,14.37-18.07,18.44-30.62l9.32,2.44c5.29,10.76,9.21,19.51,10.17,31.53q4.85,1.67,9.7,3.28c12.26-18.65,34.24-34.38,38-56.77,2.29,9.13,4.62,18.12,6,27.43,15,7.52,21.35,6,37.47,2.17,7.74-19,21.3-39.34,25-59.15a71.34,71.34,0,0,0,12.1-6.32c12.35,7.29,16,11.88,31.68,12.14,5.72-6.93,10.23-13,13.28-21.35,2,.17,3.93.34,5.91.46,1.33,6.18,3.44,11.92,4.88,18" fill="none" stroke="#000" stroke-linecap="round" stroke-linejoin="round" stroke-width="5"/><path d="M1563.94,23.6c14.78,3.74,22.49-6.49,37.36-10.78,1.32-3.44,2.63-6.88,4-10.32,8.82,50.28,1.54,105,4,155.92a36.49,36.49,0,0,0,10.82,5.2c1.56,4.3,3.11,8.6,4.7,12.89,4.62-10.64,5.2-18.18,5.4-29.61l7.58-6a197.75,197.75,0,0,1,1.48,20c1.61,1.25,3.18,2.49,4.82,3.7l.79,6.73c5.37,1.42,12.13,47.61,12.56,53.78l3.53,2.74c2.28-1.36,4.79-2,7-3.36,2.32-10.82,6.5-20.65,7.45-31.89,3.38-2.76,6.88-5.95,10.47-8.55,2,1.19,3.94,2.38,6,3.51,6.82,52.32,9.73,105.66,10.92,158.51l2.38-11.79c2,4.35,2.62,8.32,3.32,13,16.46,2.17,11.33-10.39,22.1-17.62,1.5-6.1.88-8.49,6.09-11.71.83-3.44,1.66-6.87,2.54-10.29l11.37-3.76c6.82,20.94,9,37.48,9.26,59.7,8.57,7,9.46,47.52,9.71,58.66,24.31,26.25-10.95,89.51,19.79,117.94a146.2,146.2,0,0,0,17.39-24.87c16,54.53,14.9,123.39,16.19,180.78,7.73,5.15,9,5.09,17.65,1.81,6.66-16.89,12-30,12.94-48.27,3.13,7.42,6.17,17.42,13.36,21.1.73,5.11,1.47,10.22,2.28,15.32,23.3-43.36,19.66-120.69,24.75-171.57,6,21.73,8.79,45.39,13.79,67.77,5.53-12.19,29.09-31.56,32-45.93-2.36.13,9.72-98.29,16.87-147,2.2,8.59,2.55,16.52,2.81,25.35l3.59,2.81a91,91,0,0,1,14.9-19.37,41.69,41.69,0,0,1,6.13,11.42c15.72-12.23,31.2-47.09,35.58-67.71" fill="none" stroke="#000" stroke-linecap="round" stroke-linejoin="round" stroke-width="5"/></g></g></svg>