<svg xmlns="http://www.w3.org/2000/svg" viewBox="0 0 1138.96 927.06"><title>venice</title><g id="Layer_2" data-name="Layer 2"><g id="Layer_4" data-name="Layer 4"><path d="M714.53,0c-2.26,5.62-4.27,11.36-6.86,16.82-1.81,3.82-2.86,5.51,2.6,7.83,32.6,13.79,65.31,27.46,97.1,43,12.42,6.06,22.6,16.76,33.71,25.46,2.65,2.07,5.63,4.22,7.18,7a12.8,12.8,0,0,1,.89,8.77c-.4,1.44-4.54,3.42-5.9,2.79-5.62-2.58-8,1.42-11,4.39-3.3,3.29-8,6.38-9,10.33-.52,2.06,5.46,5.91,8.67,8.76,12.43,11,24.87,22.09,37.52,32.88,1.08.92,4.57.72,5.59-.3,6.93-6.94,13.55-14.19,20.17-21.43,3.85-4.21,7.93-5.65,12.73-1.66,5.22,4.34,6,9.38,2,14.8-4.43,6.11-9,12.15-13.55,18.16-4.8,6.29-3.9,8.24,3.73,11.32,16.57,6.72,32.81,14.29,49.49,20.72,14.91,5.75,30.23,10.43,45.37,15.58,12.07,4.1,12,4.1,16.19-8.13,3.82-11.25,7.76-22.47,11.47-33.76,1.3-4,2.93-8.5,7.69-6.47,3.65,1.55,6.73,5.43,8.91,9,1.11,1.8.19,5.34-.68,7.79-5.78,16.42-13,32.45-17.35,49.23-3.15,12-9.29,23.33-8.67,36.55.34,7.28-2,14.91-4.3,22-1.9,5.87-.17,10.18,3.71,13.64,11.15,10,13.37,24.58,19.73,37,1.08,2.11-.1,5.3.12,8,.11,1.38,1,2.69,1.57,4,.91-.85,2.13-1.52,2.67-2.55,26.64-50.21,33.18-60.46,36.19-78.9,1.48-9.07,8.1-17.39,12.87-25.81a137.73,137.73,0,0,1,11.64-17.66c1.53-1.95,5.39-3.46,7.71-3,1.9.41,4,4,4.32,6.4s-1.17,5.09-2.38,7.4c-4.47,8.53-9.46,16.79-13.7,25.43-10.91,22.23-35.39,73.93-48.63,103-3,6.62-.58,17.57-1.76,28.45-.77,7.06.17,10.49,8.53,11.7,6,.88,7.92,1.12,9.82-5.32,3.89-13.2,9.33-25.94,13.87-39s7.75-26.61,13.34-39.15C1099,310.29,1111.36,286,1123,261.38c2.27-4.78,6-4.17,9.27-2.8,4.72,2,8.5,5.56,5.73,11.41-2.91,6.16-6.69,11.91-9.63,18.06-16.9,35.33-17.83,37.66-53,120.65-5.59,13.18-2.65,17.26,11.65,18a160,160,0,0,1,24.51,3.49c2.42.52,4.19,3.74,6.46,5.47a26.45,26.45,0,0,0,6.78,4.19c6.14,2.16,10.3,5.33,9.48,12.72-.62,5.45-3.46,7.15-8.38,4.48a10.36,10.36,0,0,1-3-2c-8.72-10.27-21.11-12.27-33.27-14.12-3.17-.48-8.06,1.29-10,3.74-8.72,10.78-16.72,22.15-24.81,33.43-.65.91-.61,3.35.11,4.06,10,9.88,12,22.86,14.31,35.79.62,3.49,2.25,6.81,2.84,10.3.67,4-.45,8.16-5.12,8-2.49-.11-6-3-7-5.42-2.63-6.47-3.33-13.77-6.28-20a175.77,175.77,0,0,0-15.14-26.33c-2.74-3.91-7.58-5.94-13.47-5.8-9.9.24-20.17.25-28.44-6.93-1.07-.92-3.12-2-3-2.76,1.4-10.09-7.12-8.68-12.37-10.49-4-1.4-8-2.87-8.78,5-1.21,12.72-4.42,25.24-6.84,37.84-.62,3.22-2.32,6.5-2,9.58.89,8.12,7,13,15.72,13.37a50.56,50.56,0,0,0,9.61,0c18.37-2.74,29.47,7.45,39.1,21.08,3.53,5,5.24,12.6,14,12.18,1.07-.06,2.89,2.64,3.31,4.33,1.75,7-4.08,8.72-8.46,10.84-3.88,1.87-7.36,1.88-10.42-3-6-9.69-13-18.82-19.92-27.92-1.42-1.86-4.26-2.92-6.66-3.71-13.34-4.4-22.44-1.62-30.42,9.15-3.47,4.69-6.73,9.54-10.18,14.24-1.61,2.18-3.27,3.67,1.18,4.69,6.19,1.42,6.43,6.81,4.37,11-.69,1.42-7.11,1.52-9.86.14-5.47-2.74-9.72-3.75-15.14.39-5,3.81-11,6.27-16.57,9.23-9.62,5.1-5.53,12.16-6.52,13.36-8.17,10,3.23,13.76,6.69,19.61,2.59,4.37,6.37,8.09,13.1,8.7s10.41,7.37,10.92,13.93c.17,2.16-3.84,5.78-6.62,6.72s-7.87.81-9.74-1.06a310.61,310.61,0,0,1-23.45-26.26c-2.95-3.7-5-3.9-9-2.25a79.94,79.94,0,0,1-15.75,4.23c-3.34.62-6.92-.17-10.33.22-9.49,1.08-10.35,4.39-6.88,12.77,3.83,9.24,5.93,19.28,7.88,29.15.36,1.82-3.48,6.13-5.65,6.33-2.35.22-7.24-3.1-7.19-4.77.36-13-7.93-22.24-13.08-32.83-4.23-8.71-2.65-12.85,6-17.15a55.77,55.77,0,0,1,29.8-5.91c4.16.33,7-.88,8.77-4.93a12.78,12.78,0,0,1,4.68-5.36c4.7-2.91,7-6.73,6.08-12.22-.78-4.82,1.79-6.87,5.89-8.62,6-2.57,11.7-5.9,17.56-8.84,3-1.49,3.95-3.61.55-5.14-14.24-6.4-20.72-20.31-30.27-31.15-7.53-8.55-13.71-18.28-20.79-27.25-.82-1-4.09-1.43-5.35-.67-11.35,6.87-22.28,14.46-33.8,21-7.32,4.16-15.51,6.77-23.17,10.35-3.93,1.83-7.57,4.27-11.67,6.62,15,13.19,20.77,14.71,29.58,36.4,3.67,9,7.1,18.06,12.83,26.11,3.4,4.78-.22,10.85-3.67,15.24-9.47,12-26.17,15.84-33.26,30-2.42,4.82-3.11,10.48-4.82,15.68-3.43,10.4-13.69,15.53-25.8,13.52-1.72-.28-3.79,1.57-5.7,2.44,1.07,1.35,1.86,3.22,3.25,4,3.3,1.77,9.17,2.3,9.89,4.62,1.52,4.9,2.11,11.36.12,15.87-8.78,19.92-9.53,41-11,62.11-.33,4.65-2.76,6.32-7.16,6.45-5.18.14-5.12-3.13-5.24-6.85-.71-21,4.08-41.08,10.06-60.92,1.48-4.9,1.63-7.65-3.92-9.94-7.2-3-9.21-9-7.39-17.9.34-1.65,1.37-3.36,1.13-4.89-.3-2-1.55-3.8-2.4-5.69-1.58,1.23-4,2.13-4.61,3.73-19.25,49.68-17.25,49.87-32.42,97.16-1.15,3.58-4.1,6.54-5.75,10-7.27,15.21-13.62,30.91-21.69,45.68-13.16,24.12-24.41,49-32.74,75.14-1.81,5.71-5.23,7.17-9.87,5.8-5.15-1.52-5.29-6.2-3.61-10.36,8.9-22.06,17.71-44.17,27.25-66,2.88-6.57,8.38-11.92,11.93-18.25,2.41-4.29,3.72-9.26,5-14.06.58-2.24-31.13-14.83-50.58-27.52-10.24-6.68-18.35-16.71-27.08-25.58-3.59-3.65-5.2-4.72-8.19.84-12.15,22.61-19.65,46.86-26.55,71.4a73.74,73.74,0,0,1-16.26,29.6c-3.85,4.3-5.42,10.62-8.15,16-2.86,5.59-10.25,8.21-14.62,4.82-5.08-3.92-3.53-9-.36-13,4.7-5.93,5.19-9.83-2.57-13.57-12.84-6.2-25.41-13-37.89-19.88-8.5-4.7-17.2-8.76-25.29-14.63C457.84,797,437.56,794,418.17,789.66c-12.7-2.87-6.26-12.84-6.56-27-.27-12.86.21-25.87-5.6-38a33.33,33.33,0,0,1-3-9.72c-.61-4.44-.77-7.89,6-9.25,25.37-5.15,50.34-12.32,75.79-16.93,23.64-4.28,47.7-6.18,71.56-9.3,9.12-1.19,18.14-3.17,27.28-4.18,4-.44,3.11-2.11,2.8-4.7-1.63-13.77-3.28-27.54-4.41-41.36-.34-4.12-1.46-5.53-5.6-5.49-6.61.08-13.66,1-19.75-1A265,265,0,0,1,519.58,608c-9.92-4.89-18.57-12.3-28.43-17.33-5-2.57-11.8-3.85-17.16-2.74-2.59.54-5.08,7.88-5.33,12.26-.8,14.07-6,27-13.26,38-5.78,8.71-15.91,15.18-25.26,20.71a137.49,137.49,0,0,1-32.06,13.79c-11.36,3.23-21.2,8.87-30.7,15.2-6.24,4.15-11.56,9.8-16.84,15.22-.91.93-.25,4.5.82,6.1,12.93,19.44,25.17,31.48,26.55,50,1,13.37.41,26.87.25,40.32-.13,10.54-2.14,13.09-9.83,12-2-.29-3.82-3.07-5.32-5-.59-.77-.44-2.52,0-3.6,3.8-10.21.63-20.71,1.46-31,.73-9-.59-17.19-6.34-24.73-7.36-9.65-14.19-19.72-20.81-29.89-2.44-3.75-4.62-3.41-7.79-1.67-3,1.64-6.36,2.68-9.14,4.59-11.26,7.73-24,8.75-37,8.77-7.65,0-15.72-1.8-22.31,4.26a5.84,5.84,0,0,1-4.09,1.4c-12.91-1.51-20.83,7.91-30.38,13.72-3.95,2.4-7.55,5.52-11.73,7.36-6.51,2.86-7.39,7.77-6.63,13.86.58,4.58,1.13,9.19,1.3,13.79.12,3.24,1.17,7.38-4.29,7.67-4.76.25-9.78.77-10.29-6-1.42-18.92,1.06-38.67-7.16-60.37-2.31-6.1-1.89-11.07,6.08-14.17C209.62,704.3,225,697,240.35,689.78c1.47-.69,3.08-4.18,2.54-5.56-3.95-10.1-4.8-21.75-15.8-28.32-11.2-6.68-9.85-19.16-10.34-29.63-1.48-31.54-12.45-50.51-43.79-129.43-1.58-4-2-8.42-4.84-13.06-1.34,4.54-3.71,9.07-3.8,13.64-.18,9.37-5.65,16-10.39,22.93-14.84,21.7-30.15,43.07-44.89,64.83-2.12,3.13-1.47,8-3.31,11.47-2.4,4.45-6.15,8.16-9.09,12.34-6,8.53-12.12,17-13.12,28-.61,6.65-14,14.25-38.5,63.45-6,12-13.79,19.83-28.46,16.67-2.36-.5-4.92-.06-7.38-.07-9.08,0-11.51-4-6.91-11.73C8.46,695,146.45,465.49,152.72,455.12c.87-1.44,2.8-3.26,4.17-3.2,6.54.29,7.92-5.18,10.42-9,3.9-6,6.44-13.07,10.91-18.58,4.11-5.06,4.92-14.4,15.05-13.35,1.23.13,2.92-4.11,4.41-6.31,5.1-7.56,9.52-15.74,15.57-22.44,3.51-3.89,9.7-5.33,14.61-8,10-5.48,20-11.06,30.07-16.57,8.95-4.91,9.27-6.68,3.35-15.11-1.16-1.65-1.22-4-2-6s-1.3-5.1-2.67-5.57c-12.51-4.27-17.39-15.22-20.82-25.92-2.64-8.23-7.9-12.19-14.36-15.77-9.18-5.09-16.89-12.19-28.43-14-6.2-1-12.41-5.57-19.73-5.48-.88,0-2.79-3.52-2.56-5.18,1.64-11.75,3.72-23.45,5.66-35.16.94-5.67,5.42-4.71,8.63-3.7,9.21,2.91,18.32,6.22,27.25,9.9,10,4.12,20,8.82,26.33,18,5.36,7.77,14.65,7.63,21.69,12.06,11.22,7.07,21.08,14.91,27.3,26.69,11.94,22.58,23.55,45.34,35.58,67.88,3.17,5.91,7.95,11,10.95,17,1.88,3.74,1.71,8.48,2.7,12.71.52,2.24,1,4.91,2.55,6.31.76.7,4.26-.4,5.62-1.66,11.16-10.33,23.3-19.74,30.11-34.06,2.55-5.36,6.63-10,10.08-14.93,9-12.9,19.54-24.58,29.68-36.59,23.92-28.31,40.43-27,59.63-39.56,22.81-14.91,48.89-22.77,72.86-35.11,4.26-2.19,5.41-3.38,3-8.64-5.15-11.44-8.4-23.72-13-35.43a30.91,30.91,0,0,0-7.3-10.63c-14.85-14.25-31.39-26.53-49.91-35.33-21.39-10.15-43.54-18.7-65.51-27.58-1.65-.66-5.66,1-6.6,2.66-8.11,14.38-15.76,29-23.53,43.6a2.43,2.43,0,0,0-.32,1.42c2.29,12.41-6.06,20.4-12,29.47-7.32,11.13-14.53,22.34-21.33,33.79-3.35,5.65-7.33,5.29-11.47,2.11-35.3-27.16-29.1-21.24-85.83-76.94-6.08-6-6-9.9-1-15,4-4,7.64-3.93,11.25.26,5.26,6.1,10.58,12.16,15.65,18.42,3.6,4.45,6.72,6.86,11.38,1a65.93,65.93,0,0,1,11.55-11.4c1.85-1.43,5.2-.9,7.87-1.26.12,2.5,1.31,5.75.18,7.36-13.68,19.49-18.81,17.78-13.64,23.42,12.48,13.62,26.77,25,42.15,35.17,2.76,1.83,3.88,2.39,6-.81,24.86-38,28.58-40.56,28.2-44-1.52-14.13,7.76-24.3,13.17-35.83,2.88-6.15,6.87-11.77,10.06-17.78.5-1-.1-3.47-1-4-8.5-5.21-17.12-10.25-25.86-15-.94-.52-3.32.46-4.35,1.45-35.22,33.77-28.62,30.28-40.75,41.87-2,1.88-5.87,1.75-8.88,2.54.34-3-.37-6.8,1.18-8.93C326.55,117,336.85,104,347,90.93a21.12,21.12,0,0,1,3.15-3.12c9.4-7.84,9.11-7.56,1-16.37-12-13.07-28.28-19.75-42.6-29.35-4.45-3-9.11-5.64-13.64-8.5-4-2.56-4.07-12.47,0-18.59,3.38-5.12,7.54-2.68,10.83-.35C328,30.44,352.13,43.54,371.82,62.77c3.12,3,6.11,6.21,9.18,9.29,15.76,15.83,36.14,23.93,56.31,31.42a285,285,0,0,1,53.35,26.59c17.84,11.29,35.48,23,52.61,35.28,10.9,7.85,16,29.86,27.09,52.82,1.37,2.84,6.38,5.05,9.95,5.46,7.3.84,14.77.12,22.16.29q26.5.6,53,1.5c4,.15,5.58-1,6.87-5.22,3.41-11.31,7.9-22.31,12-33.43a2.27,2.27,0,0,1,.4-.62c13.52-15.13,16.78-34.66,22.72-53,.14-.45.55-.85.6-1.3.68-6.14,3.49-12.31-5.87-15.59-8.57-3-16-8.2-25.75-9.31-9.61-1.09-18.65-6.59-28.15-9.48-20.42-6.21-16.61-6.66-24.54,10.26-5.66,12.07-17.29,13.93-27.08,18.73-5.32,2.62-9.66-1-12.3-7-3.26-7.45-7.78-14.39-12.28-21.21-1-1.55-4.24-2.49-6.35-2.34-10,.67-19.91,1.52-29.78,2.9-8.63,1.22-15.93-2-22.74-6.22C473.62,74,443.92,77.26,395.06,49.22c-5.84-3.35-6.84-11.82-4.8-19.31C393,20,395.38,10,397.92,0h19.23c1.91,1.19,3.67,2.79,5.74,3.5q67.69,23.22,135.44,46.24c10.56,3.6,10.58,3.59,13.35-6.85,1.05-4,1.4-8.25,3.14-11.87,2.13-4.41-.71-5.32-3.44-6.18-13.56-4.26-25.44-11.68-37.07-19.55-1.55-1.06-2.18-3.49-3.24-5.29h28.11c1.17,1.07,2.15,2.54,3.52,3.14,34.11,15,68.18,30.06,102.46,44.64,11,4.67,11.24,4,16-6.66,3.93-8.87,3.92-8.86-5.28-12a47.15,47.15,0,0,1-4.73-1.9c-14.44-6.78-28.94-13.43-43.23-20.51-2.65-1.32-4.41-4.43-6.58-6.71h38.47c10,4.41,19.94,8.84,30,13.13.52.23,2-.59,2.29-1.25C693.74,8,695.22,4,696.77,0ZM412.77,448.34l-2,.81c0,9.78.14,9.92-6.75,16.54-3.59,3.44-5.75,7-5.2,12.19.27,2.57-.47,5.29-1,7.89-2.09,9.83-.35,13.86,7.48,17.15,13,5.47,25.79,11.32,38.95,16.27,4.18,1.58,4.85,3.55,5.2,7.38.25,2.64,1.72,6.16,3.79,7.45,4.49,2.78,9.79,4.23,14.59,6.56,1.46.72,3.32,2.48,3.41,3.87.34,5.39.75,10.94-.13,16.22-2.11,12.48-2.4,12.43,9.67,12.37.5,0,1,0,1.48,0,3.8.36,5.79-.44,7-5,2.58-10.08,6.43-19.83,9.79-29.7,2.3-6.78,4.56-11.36-4.06-17.94-11.05-8.46-22.75-15.75-33.95-23.84-8.08-5.83-14.74-14.57-14.79-24.64-.06-11.74,2.82-23.54,4.88-35.23,1.95-11,11.28-16.87,18.31-24.22,7.93-8.27,8.7-7.55,19.76-3.9,13.67,4.51,25.12,14,40,16,12.64,1.76,12.23,2.56,20.44-7.74,2.69-3.37,1.86-4.72-.72-6.95-22.08-19.2-44.73-37.84-60.42-63.17-7-11.36-14.46-22.5-21.36-34-2.33-3.87-3.91-4.66-7.8-1.69-13.26,10.13-27.05,19.26-35.86,34.41-9.74,16.76-21.14,32.56-31.66,48.88-.9,1.39-1.36,3.9-.72,5.29,4.06,8.82,8.71,17.37,12.72,26.21C407.05,433.22,409.78,440.84,412.77,448.34Zm44.46,19.91-2.07.74c4,5.57,6.91,12.56,12.14,16.46,13.63,10.16,28.31,18.92,42.46,28.38,2.61,1.74,6.48,4,6.73,6.36.63,5.72,4.36,6.82,8.43,8.58,3.33,1.43,6.32,3.65,9.5,5.47,10.51,6,20.57,13.18,31.7,17.69,19,7.69,27.65,20.76,39.8,31.76,3.48,3.15,6.79,4.77,10.77-.16,3.62-4.47,19.51-1,15.72-12.68-.58-1.8-.23-3.91-.24-5.88,0-9.46-6.8-18.69-16.18-20.87-5-1.17-6.59-4-5.92-8.38a28.25,28.25,0,0,1,2.77-8.18c2.51-5,2.67-8.8-2.08-13.29a140.64,140.64,0,0,1-19.41-22.45c-3.08-4.51-3.88-10.79-4.91-16.43-.86-4.69,1.83-6.87,6.75-7.49,9.14-1.14,18.2-2.9,27.25-4.6,5.34-1,8.75-3.07,4-8.94-1.32-1.62-1.73-4-2.61-6-4.16-9.5-8.13-19.09-12.71-28.38-.81-1.65-4.23-3-6.36-2.84-10,.54-19.88,1.92-29.84,2.41-4.55.23-7.49,1.42-10.31,5.34-3.37,4.7-7.58,10.69-12.5,11.95-7,1.79-15.31,1-22.47-.88-11.43-3-22.52-7.48-33.47-12-11.69-4.82-11.11-4.72-19.29,3.33C463.39,438.62,457.28,452,457.23,468.25ZM345.74,486c-1.91-15.14-4.59-30.23-5.47-45.42-.6-10.25-5.83-9.8-13.72-11-12.12-1.8-24-6-30.34-18.68-5.23-10.44-11-20.61-16.82-30.74-3-5.18-7-6.9-13.31-4.42-16.45,6.47-28.7,17.26-39.22,31.45-8.4,11.32-14.41,24.33-25.8,33.84-6.52,5.44-10,14.85-13.91,22.9a18.07,18.07,0,0,0-.93,11.45c1.69,6.77,4.72,13.2,7,19.82,5.11,14.63,4.86,14.35,18.36,5.29,3-2,10.16-2.73,11.52-1,3.13,4,1.81,9.4-3.14,12.56a50.8,50.8,0,0,1-9.57,5.2C199.87,521.13,199,523,204.57,533c.69,1.21,3.37,2.21,4.83,1.9,10.83-2.31,17.35-4.69,106-30.59,3.76-1.1,5.53-2,2.6-6.34-1.43-2.13-1.43-7,.1-8.85,3.05-3.67,18.36-.28,22.85,1.36C346.25,492.37,347.05,490.21,345.74,486ZM924,349.86c6.73-1.89,34.57-10.55,47.85-15,2.79-.93,6.1-2.92,7.4-5.36,8.87-16.79,19.24-32.73,20.44-53,.49-8.43-1.35-10.65-8.27-12.15-15.12-3.3-30.15-7-45.26-10.29-4.93-1.08-8.68.13-10.93,5.65-3.69,9-8.74,17.45-12.24,26.52-2.53,6.55-7.35,7.57-12.17,5.5a151.47,151.47,0,0,1-23.73-12.92c-12.78-8.42-25.3-17.28-37.54-26.47-4.83-3.62-6.8-1.71-9.37,2.26-7.91,12.26-16,24.4-24.1,36.53-6.26,9.38-6.28,9.31,3.15,16.44,3.12,2.36,5.91,5.16,9.1,7.39,8.75,6.13,15.46,15.94,27.91,15.65,1.13,0,2.29,1.64,3.45,2.5,8,5.89,16,11.74,23.9,17.68,4.4,3.29,8.73,3,12.09-1C902.82,341.3,911.89,345.88,924,349.86ZM707.34,765.56c.68-.61,2.62-1.5,3.06-2.87,5.61-17.29,10.71-34.74,16.52-52,5.91-17.53,8-36.71,21.59-51.09.94-1,.73-4.16-.14-5.58-6.8-11.16-13.84-22.19-21-33.12a5.57,5.57,0,0,0-4.25-2.14c-6.27.46-12.5,1.34-18.74,2.09-4.87.59-8.27-.48-9.71-6.07-1.32-5.13-3.92-9.91-5.78-14.91-1.55-4.16-3.26-5.79-8.51-4.37-7.73,2.1-15,4.54-21.9,8.76-11.15,6.75-23.3,11.88-34.27,18.87-6.39,4.07-9,11.08-8.07,19.36,1.32,11.31,3.38,22.14,7.51,33,4.43,11.63,6.53,24.23,8.83,36.56,1,5.61,2.48,4.68,5.8,2.09,12.65-9.88,25.68-19.3,38-29.61,9.35-7.85,15.11,0,19.86,2.69,5.94,3.31,5.81,7.19,2.38,12.59-8.83,13.9-17.48,27.94-25.65,42.23-5.28,9.24-4.74,9.29,4.8,14.07,4.4,2.21,6.46,1.49,7.81-3.23C687.69,745,690,737,693,729.38c.73-1.86,4.23-3.6,6.44-3.58,1.43,0,3.63,3.19,4,5.23.84,4.44-2.48,11.18-7.49,28.69-.33,1.15.23,3.62.89,3.82C699.86,764.47,703,764.8,707.34,765.56Zm190-335.5c-3.43-7.19-5.8-16.16-11.17-22.65C873,391.5,858.8,376.35,841.14,365c-4.29-2.77-6.73-2.07-9.47,1.65q-19.29,26.16-38.8,52.16c-2.13,2.83-5,5.15-7.73,7.48-7.52,6.44-19.26,8.87-20.17,21.58-.06.94-1.54,1.85-2.46,2.66-3.5,3.05-6.74,6.53-10.64,9-5,3.11-3.38,5.75-.69,9.22,9.52,12.3,19.79,24.17,25,39.19,2,5.94,5.58,6.34,10.63,4.08,15.85-7.07,32.17-13.22,47.48-21.3,10.21-5.4,19.28-13.13,28.34-20.46,8.18-6.62,14.63-16.27,23.73-20.6C895.68,445.14,895.5,438.33,897.33,430.06ZM580.19,406.18c4.37-.35,8.77-.51,13.11-1.1,3.48-.47,4.91-1.51,2.21-5.45-3.66-5.33-7.42-11.11-9-17.25-4.9-19-1.68-38.15,3.81-56.13,6.31-20.66,8-41.7,10.74-62.75.55-4.25-.26-7.51-5.68-6.53-12.13,2.19-25,2.57-36.22,7C533,274.41,507.69,286.83,482,298.29c-3.65,1.62-4.52,3.15-2.48,6.89,13.51,24.65,27.23,49.07,48.79,68C545.25,388.06,556.73,408.31,580.19,406.18ZM266.61,717.87c31,1.35,53.69-8.15,73.11-27.45,8.34-8.28,18.86-14.48,28.78-21,4.2-2.77,6.14-4.52,2.93-9.52-5.93-9.24-11-19-16.87-28.33-2-3.16-4.48-5.2-9.75-3.75-23.33,6.41-46.9,12-70.42,17.64-4.5,1.09-9.33,2.08-12-3.69s-5.23-11.94-8.41-17.6-9.7-6.14-17.67-1.57c-5.82,3.34-.45,6.83.85,9.66,7.35,16.06,17.23,30.94,20.64,48.79,2.44,12.75-.16,18.07-12,22.55-14.05,5.32-27.86,11.26-41.71,17.09-1.31.55-3.28,2.59-3,3.3,1.8,5.26,3.06,11.35,6.68,15,1.47,1.47,8.48-2.36,12.86-4.06a20.75,20.75,0,0,0,4.83-3.24C238.69,721.4,253.22,715.42,266.61,717.87Zm-29-110.41a55.73,55.73,0,0,0,7.1-1.41c7.56-2.53,14.91-5.78,22.59-7.8,14.44-3.8,14.42-3.51,11.47-18.38-1.24-6.26-.28-10.75,7.46-12.91,20.73-5.8,41.23-12.48,61.73-19.08,1.8-.58,4.46-3.4,4.21-4.69-1.8-9.24-4.24-18.36-6.52-27.51-.68-2.72-1-4.5-5.25-3.23-18.13,5.5-27.53,6.88-115.31,31.65a4.21,4.21,0,0,0-2.27,3.38c2.8,18.43,6.11,36.78,8.58,55.24C232.09,607.6,233.35,608.65,237.64,607.46Zm533.84-6.06c-1.64,2.58-2.85,5.79-3.79,5.71-3.11-.25-7.18-.77-9-2.84-5.56-6.42-10.17-13.64-15.3-20.44-.73-1-2.28-1.34-3.46-2,.21,1.32,0,2.91.69,3.91,5.32,7.85,10.71,15.65,16.27,23.32,4.42,6.1,4.1,9.76-1.76,14.6-7.71,6.38-6.78,6.2-1.7,14.94,5.39,9.28,16.26,15.12,17.1,27.22.05.71,1.65,1.41,2.63,1.94,4.69,2.56,8.64.14,13.28-.73,7.26-1.36,7.47-4.65,6.9-9.7-.8-7,1.65-12.31,7-16.77,9.11-7.61,18.13-15.34,26.89-23.33,1.54-1.4,2.84-4.74,2.24-6.5-2.61-7.72-5.92-15.2-9.07-22.73-1.21-2.88-2.06-6.24-4.13-8.35-5.57-5.7-12.59-10.16-17.39-16.39-6.4-8.3-12.46-13-22.23-5.49a9.49,9.49,0,0,1-2.75.93c-7.56,2.45-15.19,4.7-22.61,7.51-1.28.49-2.83,4.06-2.26,5C751.81,575.63,752.75,576.6,771.48,601.4ZM961.49,460c0-8.28-3.06-14-11-16.52-6.89-2.17-13.81-4.26-20.82-5.93-3.77-.9-6.73-.42-7.6,5a32.19,32.19,0,0,1-5.75,13.76C906.83,469,896.56,481,887,493.61c-1.39,1.82-1.78,5.95-.67,7.84,3.19,5.41,7.78,10,11.13,15.29,10.7,17,26,29.62,40.11,43.46.7.69,3.46.63,4-.06,5.93-7.7,11.52-15.66,17.4-23.4,2.36-3.09,1.7-4.45-1.26-7-3.2-2.72-6.89-7-7-10.72C949.82,499.54,956.58,479.16,961.49,460ZM597,361.54c-.06,15.57,6.51,25.22,13.68,34.52.72.93,3.22,1.59,4.14,1.07,8.32-4.77,17.39-9.6,18.19-20.4.52-7,3.37-12.45,7-17.92,3.22-4.88,6.39-9.78,9.62-14.65,2.66-4,1.94-7.33-2-10-13-8.61-13.69-18.88-8.67-33.29,4.62-13.27,10.73-26,16.41-38.92,1.57-3.56,1-4-2.86-5.49-11.71-4.43-23.6-1.93-35.4-2.3-1.16,0-3.18,2-3.43,3.36a81.36,81.36,0,0,0-1.59,14.5C612,296.21,606.35,317.85,597,361.54Zm-142,229.87c-.63-1.12-1.53-5.18-3.4-5.69-12.81-3.49-26-5.5-38.68-9.47-9.12-2.87-14.49-3.74-20.36,6.6-6.25,11-16.76,19.55-25.36,29.23-2.12,2.39-5.69,4.24-2.54,8.55,7.45,10.21,15,20.36,21.75,31,3.66,5.81,7,5.51,12.26,2.74,5.76-3,12.39-4.54,17.93-7.89a238.67,238.67,0,0,0,27.42-18.8C454.9,618.86,452.76,605.3,455.05,591.41Zm64.73,172.82c1.38,14-3.38,26.18-9.64,38-2.28,4.3-1.09,6.25,2.93,8.48,11.42,6.33,22.86,12.7,33.72,19.91,6.19,4.11,9.51,1.71,12.06-3.31,7.65-15.08,11.59-26.52,30.53-77.51a15.24,15.24,0,0,0,1.34-5.55c0-1.18-1.43-3.26-2.34-3.32-12.92-1-24.63,3-36.26,8.31-3.63,1.68-9.8,1.33-13.17-.75-4.35-2.69-7.43-7.8-10.36-12.31-2.74-4.22-5.23-1.87-8.07-.73-2.68,1.08-5.35,1.37-4.31,5.87C517.93,748.81,518.64,756.57,519.78,764.23ZM784.45,334.74l1.47.55c-1.69,3.68-2.95,7.64-5.13,11-5.7,8.77-13.4,16.61-17.43,26-10.62,24.84-29.64,43.87-43.56,66.35-1.16,1.87-2.74,4.71-2.1,6.24a53,53,0,0,0,7.22,11.77c.83,1.06,3.91,1.55,5.23.87,10.41-5.31,19.68-11.68,25.34-22.74,2.36-4.6,7.54-7.92,11.82-11.33,5.08-4,11-7.06,15.83-11.4,15.23-13.8,23.36-32.7,34.53-49.42a3.55,3.55,0,0,0,0-3.28c-7.61-10.09-5.08-7.61-29.34-26.58a17.65,17.65,0,0,0-3.13-1.58ZM727.71,531.31c-1-2.62-1.37-4.6-2.35-6.22-13.87-22.91-3-42.63-9.69-55.34-7.5-14.26-17.44-27.23-26.54-40.62-.48-.71-2.56-1.05-3.49-.64-7.93,3.56-.89,5.36.79,8.24s2.2,6.27,3.22,9.45c-2.91.05-6.3,1.11-8.65,0-11.89-5.69-11.79-5.89-21.31,3.63-2.09,2.09-4.05,4.32-6.28,6.24-2.49,2.15-2.86,3.62-.36,6.46,11.12,12.69,15,28.24,16.6,44.57,1.09,11.37,7.77,19.3,15.86,26.46,2.2,2,3.59,2.52,5.31-.77,3.84-7.31,8.24-14.32,12.17-21.58,1.76-3.25,3.08-7.92,7.5-5.77,2.12,1,2.8,5.74,3.37,8.92.51,2.89-2.84,6.95-11.17,22.72-.67,1.26-.68,2.88-1,4.34,1.39-.06,2.93.25,4.15-.23,6.5-2.55,12.93-5.27,19.35-8A13,13,0,0,0,727.71,531.31ZM434.19,750.18c4.82-1.36,9.81-2.31,14.43-4.17,8.79-3.53,17-9,26.1-11.11a244,244,0,0,0,47.93-16.15c19.58-9.08,39.59-16.87,61.13-20.1,2.12-.32,5.57-2.67,5.58-4.09,0-3.93-1.41-7.78-7-7.12-8,.94-16,1.16-23.89,2.58-15.2,2.75-30.25,6.32-45.43,9.19-23,4.34-59,9-75.3,12.09-5.39,1-10.58,3.39-15.63,5.67-1,.43-1.32,3.37-1.09,5,.8,5.75,2.58,11.42,2.89,17.18C424.53,750.21,422.78,749,434.19,750.18Zm315.49-563c-9.21-3.15,5.47,2.59-47-21.29-.74-.33-3.06.75-3.15,1.38-1.37,9.81-6.14,17.56-13.21,24.37-2,1.95-2.26,5.76-3.38,8.69-.95,2.47-2.27,4.83-3,7.36q-2.87,10.31-5.23,20.73c-.15.66,1.29,2.25,2.23,2.5,6.51,1.72,13.11,3.08,19.61,4.8,10.75,2.83,22.44,4.06,31.82,9.36,11.77,6.63,15.28-.9,23.09-3.32,6.17-1.92,5.41-5.25,1.94-9-4.37-4.67-9.06-9-13.44-13.68-9-9.53-7.41-21,3.64-27.51C745,190.82,746.28,189.72,749.68,187.22ZM527.87,86.72c9.75-2.37,19-4.17,28-7.09,2.7-.88,4.38-4.86,6.53-7.42-2.11-1.4-4-3.27-6.34-4.14-127.92-48.55-93.55-34-137.94-49.83-7.86-2.8-7.15,3.32-13.29,15.44-1.87,3.68-1.68,6,2.94,6.79,4.93.84,9.66,4.39,110.9,43.29C521.77,85,525,85.82,527.87,86.72ZM862.09,183.3a14.4,14.4,0,0,1-3.62-1.8c-13.82-12.47-28.26-24.35-41.21-37.67-27.53-28.32-61-46.22-97.83-58.75-5.15-1.75-7.16-.4-8.62,4.07-.68,2.07-1.61,4.06-2.46,6.07-4,9.4-3.9,9.22,6,13.44,24.23,10.31,49.74,17.94,71.27,34,67.59,50.27,53,65.63,72.11,47C859.1,188.28,860,186.44,862.09,183.3ZM567.22,605.59c15.48,0,17.11,2.21,31.44-6.09,2.63-1.53,3.19-3.45-.33-6a124,124,0,0,1-15.86-14.11c-17.17-17.54-39.49-26.76-60.6-37.94-3.15-1.67-6.09-1.89-7.66,2.76-3.25,9.61-7.08,19-10.36,28.63-.56,1.63-.28,4.49.81,5.57,3.89,3.88,7.78,8.35,12.6,10.58C534,596.76,549.11,610.14,567.22,605.59Zm341-247.12c-1.89,1.91-6.33,4.3-6.66,7.16-.62,5.39,6.38,8.66,12.27,8.18,12.18-1,25.4-7.82,35.66,5.3,1,1.29,3.55,1.33,5.34,2.06a61.26,61.26,0,0,1,8.54,3.69c7.71,4.61,15.54,9.1,22.78,14.39,5.95,4.35,8.92,2.39,11.24-3.43a12.44,12.44,0,0,1,.51-1.37c6.35-11,9.53-24.13,20.78-32.06.77-.54,1-2.82.57-3.95-3.69-9.74-7-19.71-11.61-29-4.82-9.62-6.5-9.38-12.24-.54-2.12,3.26-3.77,6.83-6,10-1.78,2.47-3.78,5.6-6.38,6.55-14.32,5.24-28.75,10.28-43.38,14.58-5.7,1.67-12,1.66-18.08,1.57C917.8,361.53,914.05,359.9,908.27,358.47ZM638.92,471.15c-10,2.84-18.37,5.47-26.84,7.5-10.19,2.44-11.07,4.57-3.94,12.64,5.93,6.73,12.11,13.25,18.27,19.78,3.86,4.09,5.27,7.68.45,12.45s-4.13,11,1.65,13.85c10.48,5.24,17.6,11.79,14.61,24.75-.24,1,.17,2.87.92,3.36,1.64,1.08,4.22,2.67,5.48,2.07q12.83-6.06,25.21-13c6.15-3.47,5.48-4.26.32-9.19-14.86-14.2-18.87-19.5-21.54-44.91-.64-6.09-3.13-7.14-8.3-6.91-1.78.08-5.08-1.5-5.18-2.56a22,22,0,0,1,1.4-8.94c.63-1.82,3.83-4.23,3.51-4.66A46.39,46.39,0,0,0,638.92,471.15ZM508.21,765.43l-1.17-.59c-.75-6-1.29-12.08-2.34-18-.63-3.61-3.08-5.58-7-4.29-9.33,3.1-18.82,5.84-27.88,9.6-12.11,5-23.85,10.91-37.4,10.83-3.25,0-7.53-1.09-6.86,4.64.56,4.79-2.78,11.29,5.84,12.62,6.19,1,12.52,1.93,18.37,4,13.09,4.75,26.08,9.87,38.79,15.56,5.72,2.57,9.44,2.06,11.24-3.83C502.91,785.88,505.45,775.62,508.21,765.43ZM589.46,31.48c-1.06,1.28-2.32,2.15-2.59,3.26q-2.73,11.3-5,22.7c-.13.6,1,1.84,1.76,2.18C596.36,65.09,609,71,622,75.75,640.6,82.59,659.6,88.46,678.34,95c13.76,4.84,13.68,5.06,19.18-9.51a10.84,10.84,0,0,1,1.09-1.93c2.8-4.27.41-5.78-3.41-7.16C633.56,54.17,644.11,58,598,36.46,595.21,35.15,592.63,33.34,589.46,31.48ZM457.59,562.3c0-10.06-.08-9.83-8.88-13.22-4.43-1.71-10.91-1-11.89-7.82-1-7.31-6.15-11.07-11.88-14.34a140,140,0,0,0-13.38-7.18c-11.17-4.83-22.12-10.46-34.61-11.31-12.34-.84-12.64-.73-7.89,11.64,2,5.21,4.41,11.72,8.66,14.31,9.92,6,19,12.72,27,21.1a17.16,17.16,0,0,0,8,4.3c12.4,3.13,24.93,5.72,37.33,8.8C456.67,570.24,458.89,567.92,457.59,562.3Zm269.08-276c-.82-.88-1.34-1.83-2.15-2.24-9.32-4.69-18.64-9.39-28.11-13.78-1-.49-3.76.51-4.37,1.58-10,17.54-19.89,35.14-29.44,52.93-.81,1.5.27,5.19,1.71,6.51,5.28,4.83,4.86,9.68,1.23,15-3.43,5-6.67,10.21-10.47,14.94-3.18,4-1,6.19,1.79,8.56,3.24,2.72,4.83.45,6.65-2,9.77-13.35,19.36-26.85,29.58-39.86,8.29-10.55,17.46-20.4,26.06-30.71C721.93,293.79,724.13,290,726.67,286.25ZM380.46,494.79c.65-.81,2.71-2.2,3-3.89a222.86,222.86,0,0,0,3-23.83c.3-5.24,1.17-9.31,6.13-12.25,2.1-1.24,4.55-4.69,4.24-6.74-2.25-14.76-7.16-28.58-17-40.16-.74-.88-3.15-1.5-4-1-5.49,3.6-11.13,7.14-15.92,11.55a12.47,12.47,0,0,0-3.58,9.06c2,20.29,4.62,40.52,7.16,60.74.21,1.64,1.19,4.25,2.27,4.5C370,493.8,374.4,494.05,380.46,494.79Zm329.21-61.28c7.67-10.79,54.58-82.83,64.66-98.14,1.62-2.46,3.14-10.5,1.22-12.33s-5.41-2.68-7.32-4.75c-3.49-3.8-5.29-3.53-7.86,1-46.42,82.2-43.4,74.57-58.06,96.75-1.25,1.9-4,4.9-3.51,5.53C701.69,425.51,705.3,428.89,709.67,433.51Zm-69.87,16.7c1.52-1.38,2.63-2.31,3.66-3.33,5.41-5.39,10.63-11,16.27-16.13,5.26-4.81,10.35-10.43,16.61-13.39,10.26-4.86,10.17-3.66,2.8-12.16a122.49,122.49,0,0,0-26.23-23c-1.18-.76-4.63-.48-4.93.23-4.54,10.42-12.06,18.14-21,24.79-1.44,1.08-3,4.69-2.34,5.5,6.52,8.41,10.95,17.36,10.54,28.39-.08,2.13,2,4.34,3.12,6.5C638.66,448.36,639.13,449.08,639.8,450.21Zm287.28-67.36c-12.11,1.32-12.17,1.33-10.32,12.38,1.4,8.34,2.79,16.69,4.61,24.95.32,1.42,2.61,3.1,4.24,3.44,10.4,2.12,21,3.36,31.28,6,6,1.55,9.73,2,12.45-4.86,1.31-3.31,4.93-6.57,8.29-8,6.21-2.69,4.43-5,.43-7.35C938,385.75,941.24,388.89,927.08,382.85Zm94.5,85.12c.7-.61,3.2-1.73,3.86-3.52,3.69-10,7-20.1,10.21-30.27.47-1.52-.19-4.84-1-5.1-11.93-3.78-24-7.21-36-10.59-.65-.18-1.77.68-2.45,1.3-7.39,6.81-14.84,13.55-22,20.57-3,2.93-2.38,5.44,2.11,6.22,7.15,1.24,14.36,2.24,21.45,3.76,3.69.8,8.64,0,9.32,6C1008,465.44,1011.08,468,1021.58,468ZM363.12,594.41c-1.46-4.62-1.67-8.86-7.67-6.24-4.84,2.11-10.16,3.1-15.27,4.59q-34.05,9.91-68.08,19.9c-1.66.49-4.16,1.64-4.4,2.86-1,4.9,8.4,13.29,13.21,12.18,12.73-2.94,25.4-6.15,38.18-8.79a87.21,87.21,0,0,0,39-18.57C360.21,598.58,361.72,596.09,363.12,594.41ZM770.49,268.46c1.35-1,3-1.71,3.94-3,7.85-10.81,15.69-21.64,23.16-32.71.8-1.19-.18-4.51-1.39-6-8.87-10.66-20.45-17.88-32-25.27-6.62-4.23-10.74,1.55-16.06,2.3,1.35,3.29,2.64,6.61,4.11,9.84.38.85,1.41,1.37,2,2.15,5.86,7.61,12.07,15,17.42,23,3.68,5.47,2,8.47-4.52,10.9-4.31,1.61-8.66,3.17-12.84,5.07-.95.44-1.88,3.2-1.82,3.24C758.31,261.53,764.23,264.89,770.49,268.46ZM769,150.07c-1-1.85-1.28-3.28-2.12-3.78-6-3.63-11.84-8-18.35-10.35-10.19-3.69-21-5.67-31.32-9-4.06-1.32-5.23.12-6,3.33-1.39,5.87-2.92,11.74-3.81,17.69-.22,1.54,1.34,4.36,2.77,5,10.73,4.48,22.21,7.52,32.33,13.07,9.51,5.21,15.77,6,20.32-5.24C764.37,156.89,767,153.47,769,150.07Zm83.85,66.38c-2,0-3.25-.4-4,.06-7.87,4.71-15.95,9.15-23.37,14.51-19.22,13.87-23.94,21.89-39.39,42.27-1,1.33-2.09,4.41-1.62,4.79,5.09,4.11,10.43,7.91,15.89,11.53.56.37,2.78-.74,3.45-1.71,5.06-7.36,10.25-14.67,14.79-22.35,9.24-15.6,17.24-32,30.45-44.91C850,219.62,851,218.49,852.82,216.45ZM757.68,62.74c-6.94-2.77-37.15-15.85-47.25-20.36-13.6-6.06-13.16-6-19.35,7.37-3.21,7-.23,9.24,5.51,11.36C732.32,74.28,744.37,80.44,746.66,78,750.76,73.6,753.84,68.26,757.68,62.74Zm52.41,55.79a24,24,0,0,0,2.64-2.25c3.59-4,7-8.19,10.72-12,2.72-2.78,2.12-3.93-1.06-5.88-12.81-7.87-25.15-16.51-38.12-24.08s-12.93-6.94-21.79,5.87c-3.18,4.6-1.87,5.64,2.21,7.77,12,6.27,25.27,10.63,34.53,21.54C802.16,112.94,806.28,115.41,810.09,118.53Zm-67,201.38c-.38-.56-.93-1.61-1.08-1.55a6.35,6.35,0,0,0-2.48,1.41c-15.28,16.41-7,5.79-55.08,66.33-1,1.22-2.33,3.81-2,4.13q6.39,6,13.37,11.26c.52.39,2.86-.6,3.5-1.53,4.38-6.4,9.06-12.66,12.66-19.5C726.94,352,740.23,324.24,743.06,319.91Zm-17,158,1.34,1.72c.47,3.84,1.14,7.68,1.38,11.53a80.68,80.68,0,0,0,9.29,33.22c.75,1.4,3.77,2.78,5.27,2.39,7-1.83,13.8-4.28,20.67-6.53,3.67-1.2,4.24-2.73,1.82-6.28-8.75-12.81-17-26-25.67-38.84-1.18-1.76-4.37-4.09-5.49-3.59C731.51,472.89,728.91,475.64,726.08,477.86Zm-133.7,232c-17.28,5.15-34,9.94-50.48,15.45-1.12.38-1.23,6.43-.35,9.41s3.69,5,7.49,2.59c11.24-7.24,23.87-7.64,36.7-7.49,16.72.19,18.53,1.82,9.53-15.43C594.61,713.11,593.72,712,592.38,709.85ZM357.29,571.36c-.5-5.91.21-11-6.78-9.07-17.71,4.91-35.43,9.78-53.11,14.79-2.92.83-6.45,1.42-4.29,6.31,1.54,3.51,2.08,6.84,7.49,5.31,17.68-5,35.49-9.51,53.19-14.41C355.43,573.83,356.66,571.9,357.29,571.36ZM937.23,221.51c-1.37-1.06-2.49-2.31-3.89-2.93-5.09-2.27-10.29-4.27-15.41-6.48-14.29-6.17-13.26-5.49-21.78,7.69-2,3-1.85,5.31,2,6.67,7.53,2.63,14.93,5.66,22.53,8,3.33,1.05,7.38,5.74,10.4-.76C933,229.78,935,225.93,937.23,221.51Zm13.62,4.3c-.9,1-2.26,2.08-2.88,3.45a59,59,0,0,0-2.9,8.23c-.87,3.06-1.59,4.79,3.48,5.95,16.28,3.73,33.69,1,49.27,8.75,1.15.57,4.69-1.3,5.4-2.83.9-1.94,2.69-4.89-2.27-6.37C989.39,239.57,982.31,236.84,950.85,225.81ZM685.75,697.5c-.67-.87-1.36-2.23-1.72-2.15a9.53,9.53,0,0,0-3.75,1.73c-10.74,8.74-21.28,17.73-32.17,26.28-7.74,6.09-8,7.11-.88,14.22a24.29,24.29,0,0,0,3.76,3.5c2.76,1.75,5,3,7.57-1.25C669.14,722.5,681.42,705.05,685.75,697.5Zm-99.5-586.69c5.83-.32,17.06-11.07,19.22-17.31,1.11-3.18.84-5.37-2.7-6.63-5.25-1.86-10.4-4-15.61-5.93-3.75-1.4-7-2.78-9.81,2.33-2.3,4.23-5.21,7.1-.47,11.91,3.24,3.27,4.68,8.29,7,12.47A28.18,28.18,0,0,0,586.25,110.81ZM711,609.54c.9-.39,1.55-.74,2.25-1,6.15-2,12.36-3.91,18.41-6.19.79-.3,1.5-2.9,1.07-3.93-2.27-5.35-5.2-10.43-7.35-15.82-1.56-3.88-3.23-4.35-6.9-2.49s-7.85,2.34-11.56,4c-2.7,1.2-7.33,4.26-7.09,4.88,2.72,6.73,6.2,13.15,9.56,19.62C709.63,609.12,710.53,609.29,711,609.54Zm108-395a40.09,40.09,0,0,0-2.71-3.09c-3.79-3.45-7.52-7-11.47-10.23-10.34-8.5-20.67-17-31.25-25.21-4.94-3.82-5.49,2.79-8.11,4.41-.45.28.17,4,1.27,4.84,11.09,8.44,22.42,16.57,33.61,24.89,3.32,2.47,6.28,5.42,9.66,7.79a5.27,5.27,0,0,0,4.34.18C816,217.44,817.24,215.93,819,214.54Zm42.21,28.82c6.06-5.33-2.46,4.32,29.91-36.66,5.36-6.79,5.39-6.67-2.36-10.16-2.82-1.26-4.81-1.75-6.29,1.91-2.58,6.37-7.47,10.88-26.43,35.45-1,1.29-2.07,4.07-1.49,4.73C856.22,240.54,858.73,241.72,861.18,243.36ZM646.9,313.64l2,4.56c1.49-.81,3.3-1.32,4.4-2.5,13.23-14.14,18.59-32.51,26.16-49.66.4-.9-1.65-2.88-2.56-4.36-2.21,1.64-5.18-4.13-7.57,1.59-6,14.48-13.09,28.53-19.66,42.79C648.56,308.43,647.85,311,646.9,313.64Zm258.68-68.36a17.91,17.91,0,0,0-2.33-2c-5.45-3.21-10.89-8.6-16.43-8.72-3.47-.08-7.12,7.8-10.7,12.1-.47.57-1.42,1-1.47,1.6-.11,1.37-.37,3.49.39,4.07,5,3.86,10.24,7.42,15.46,11,.85.58,2.78,1.18,2.94.93C897.47,258.17,901.34,252,905.58,245.28ZM1028.17,393l.54-.07c0-2-.53-4.13.1-5.86,1.73-4.71-2.82-5.29-4.57-7.69-1.65,1.23-3.4,2.36-4.94,3.73-5.14,4.54-3.27,2-13.16,21.44,4.57,1.93,9.12,3.89,13.71,5.76,1.56.63,3.31.84,4.82,1.58,5.23,2.57,5.88-.4,5.43-4.47C1029.56,402.58,1028.82,397.79,1028.17,393Zm34.91,47.5c-1.9-1.47-3.87-4.23-5.79-4.2-3.64.06-8-6-10.56-.44-3.84,8.5-6.44,17.6-8.92,26.62-.44,1.62,2.26,4.1,3.51,6.18,1.33-1,2.94-1.86,4-3.15,5-6.49,10-13.08,14.86-19.7A51.69,51.69,0,0,0,1063.08,440.48ZM742.94,296.67c-.83-1-1.43-2.14-2.39-2.68-.81-.46-2.42-.68-3-.19-2.33,2-2.86,3.29-25.9,31.52-25.67,31.44-20.94,24.53-22.24,29.08,1-.29,2.29-.29,2.94-.93,8.84-8.73,18-17.19,26.24-26.44C727.69,316.87,734.89,306.45,742.94,296.67Zm37.41-139.49c-1.16,1.32-2.55,2.32-3,3.64-.24.73.89,2.25,1.77,3,7.35,6,14.94,11.66,22.15,17.8,9.11,7.75,17.91,15.87,26.9,23.77a10.89,10.89,0,0,0,3,1.32c-.18-1.07,0-2.47-.6-3.17-6.48-7.41-12.69-15.12-19.77-21.92-7.65-7.34-16.11-13.84-24.31-20.61A54,54,0,0,0,780.35,157.18ZM369.62,548.85c-1.25,2.37-2.6,3.74-2.34,4.64,2.51,8.76,5.27,17.46,8.06,26.14.24.76,1.15,1.3,1.75,2a12.83,12.83,0,0,0,2.08-2.44c2.3-4.56,2-10.95,8.83-12.33.25,0,.59-1.88.27-2.16C382.43,559.59,376.5,554.64,369.62,548.85ZM908.71,276.28c2.55-3.13,3.93-4.38,4.76-5.92,2.74-5.11,5.5-10.24,7.78-15.56.76-1.77.11-4.14.11-6.24-2.34,1-5.8,1.29-6.8,3a124.57,124.57,0,0,0-8.09,17.74C906,270.65,907.5,272.75,908.71,276.28Zm-172.35,327-1.86,1c1.83,4.28,3.48,8.65,5.63,12.75.43.82,2.78.64,4.24.92,0-1.23.51-2.78,0-3.63C741.83,610.54,739,607,736.36,603.3Z"/><path d="M47.83,776.05c-2.94-.07-6.93-1.7-8.34-3.93-1-1.52,1-6.2,3-8,4.26-3.78,3-6-.48-9.22-5-4.51-6.35-14.31-3.38-20.08,3.08-6,10.1-8.62,18.1-6.85a23.38,23.38,0,0,0,3.65.35c12.51.79,18.26,11,12.68,22.3a16.23,16.23,0,0,0-.82,4.08c1.52-.55,3.72-.65,4.41-1.73,3-4.71,2.2-11.09,2.22-16.26,0-9.56,1.33-10.44,10.81-8.72,3.58.65,7.39,0,11,.43,2.7.33,7.1.89,7.56,2.35.78,2.49-1,5.75-1.57,8.72-.23,1.21-.59,3.23,0,3.63,8.66,6.12,8.37,14.92,5.49,23.09-3,8.42-10.88,10.53-19.36,10C90.69,776.1,66.07,776.54,47.83,776.05Z"/><path d="M739.63,826c6.16,0,12.34-.26,18.49.08,4.65.25,6.1-1.59,5.77-6-.28-3.92.07-7.88-.08-11.82s1-6,5.37-6,5.48,1.84,5.59,5.83c.2,6.83.89,13.64,1.41,20.45.46,5.95-2.16,8.49-8.2,8.38-12.08-.22-24.17.13-36.24-.16-4.39-.11-6.84,1.55-8.51,5.35-10.16,23.08-22.26,45.35-28.6,70-.7,2.73-2.54,6.39-4.77,7.25-6.61,2.57-10.8-1.91-8.6-9.32,9-30.29,16.3-42.85,24.77-62.21,2.73-6.23,4.85-12.73,7.84-18.81.78-1.57,3.76-2.77,5.8-2.88C726.31,825.81,733,826,739.63,826Z"/><path d="M784.56,870.89c0-6.16-.33-12.34.18-18.45.17-2,2.53-3.78,3.88-5.65,1.77,1.47,4.82,2.73,5.11,4.45,7.72,45.87,6.69,52.13,7.6,68,.26,4.57-1.22,7.89-6.4,7.77-4.72-.11-5.62-3.27-6-7.48-1.62-16.2-3.64-32.36-5.51-48.54Z"/><path d="M94.65,241.41A9.05,9.05,0,1,1,85.91,232,9,9,0,0,1,94.65,241.41Z" fill="#3fa9f5"/><path d="M120,242.92a9.05,9.05,0,1,1-8.45-9.63A9.06,9.06,0,0,1,120,242.92Z" fill="#3fa9f5"/><path d="M145.17,245.39a9,9,0,1,1-8.06-10A9.05,9.05,0,0,1,145.17,245.39Z" fill="#3fa9f5"/><path d="M170.22,249.19A9.07,9.07,0,0,1,166.5,255a8.84,8.84,0,0,1-6.62,1.58,9.2,9.2,0,0,1-5.81-3.55,9,9,0,0,1-1.72-6.66,8.81,8.81,0,0,1,3.53-5.93,8.92,8.92,0,0,1,6.85-1.63,9.28,9.28,0,0,1,6,3.66A8.85,8.85,0,0,1,170.22,249.19Z" fill="#3fa9f5"/><path d="M194.89,255a9.18,9.18,0,0,1-4.25,5.38,8.74,8.74,0,0,1-6.65,1,9.14,9.14,0,0,1-6.66-10.76,8.64,8.64,0,0,1,4-5.63,9,9,0,0,1,7-1.08,9.28,9.28,0,0,1,5.74,4.21A8.71,8.71,0,0,1,194.89,255Z" fill="#3fa9f5"/><path d="M218.57,263.9a9.5,9.5,0,0,1-5.06,4.62A8.73,8.73,0,0,1,202.2,264a9.26,9.26,0,0,1-.4-6.85,8.7,8.7,0,0,1,4.63-5.16,9.41,9.41,0,0,1,12.42,5A8.48,8.48,0,0,1,218.57,263.9Z" fill="#3fa9f5"/><path d="M239.39,278.15a9.85,9.85,0,0,1-6.18,2.92,8.58,8.58,0,0,1-3.21-.21,7.76,7.76,0,0,1-2.88-1.35,8.54,8.54,0,0,1-2.15-2.38,8.63,8.63,0,0,1-.68-1.48,9.16,9.16,0,0,1-.46-1.57A9.79,9.79,0,0,1,225,267.3a8.27,8.27,0,0,1,5.64-4,7.83,7.83,0,0,1,3.68.1,9.48,9.48,0,0,1,3.6,1.69,9.9,9.9,0,0,1,2.67,3,9.47,9.47,0,0,1,1.16,3.53A8.18,8.18,0,0,1,239.39,278.15Z" fill="#3fa9f5"/><path d="M255.44,297.73a7.9,7.9,0,0,1-6.68,1.95,9.72,9.72,0,0,1-6.13-3.76,8.7,8.7,0,0,1-1.46-3.16,9.19,9.19,0,0,1-.13-3.31,9.79,9.79,0,0,1,3.3-6,8.3,8.3,0,0,1,6.66-1.91,9.24,9.24,0,0,1,3.4,1.23,9.62,9.62,0,0,1,2.74,2.51,8.41,8.41,0,0,1,1.56,6.47A10.41,10.41,0,0,1,255.44,297.73Z" fill="#3fa9f5"/><path d="M270,318.34a9.6,9.6,0,0,1-9.84-.65,9,9,0,0,1-2.28-2.39,8.57,8.57,0,0,1-1.09-6.3,10.05,10.05,0,0,1,3.46-5.88A8.14,8.14,0,0,1,267,301.4a9.5,9.5,0,0,1,6.1,4.29,8.94,8.94,0,0,1,1.37,3.63,8.7,8.7,0,0,1-.16,3.6A8.55,8.55,0,0,1,270,318.34Z" fill="#3fa9f5"/><path d="M280.66,341.33a9,9,0,0,1-7.38-16.52,9,9,0,1,1,7.38,16.52Z" fill="#3fa9f5"/><path d="M290.72,364.59a8.73,8.73,0,0,1-6.9.21,9.14,9.14,0,0,1-5-4.89,9,9,0,1,1,16.65-.35A9.18,9.18,0,0,1,290.72,364.59Z" fill="#3fa9f5"/><path d="M302.85,386.81a8.37,8.37,0,0,1-6.83,1.24,8.87,8.87,0,0,1-3.25-1.59,9.45,9.45,0,0,1-3.39-10.06,8.58,8.58,0,0,1,4.46-5.27,9.39,9.39,0,0,1,6.86-.55,9,9,0,0,1,5.2,4.1,8.83,8.83,0,0,1,1.05,3.18,9.24,9.24,0,0,1-.22,3.31A9.7,9.7,0,0,1,302.85,386.81Z" fill="#3fa9f5"/><path d="M321,404.05a7.92,7.92,0,0,1-2.27,2.81,7.51,7.51,0,0,1-3.3,1.38,9.81,9.81,0,0,1-2,.11,8.06,8.06,0,0,1-2-.38,10.44,10.44,0,0,1-6.41-5.39,9.63,9.63,0,0,1-.89-3.69,8.12,8.12,0,0,1,3-6.3,10.14,10.14,0,0,1,6.43-2.27,8.61,8.61,0,0,1,3.12.45,7.16,7.16,0,0,1,4.35,3.66,10.31,10.31,0,0,1,.53,1.4,9.29,9.29,0,0,1,.35,1.47,12.45,12.45,0,0,1,0,3.35A10.52,10.52,0,0,1,321,404.05Z" fill="#3fa9f5"/><path d="M345.69,405.55a7.51,7.51,0,0,1-1,6.88,8.13,8.13,0,0,1-3,2.58,13.75,13.75,0,0,1-2,.86,14,14,0,0,1-2.29.33,13.65,13.65,0,0,1-2.32-.07,11.72,11.72,0,0,1-2.13-.63,10.38,10.38,0,0,1-1.85-.95,9.37,9.37,0,0,1-.79-.57,7.82,7.82,0,0,1-.7-.71,7.36,7.36,0,0,1-1.71-6.77,11.88,11.88,0,0,1,3.49-5.83q.29-.26.57-.48c.2-.17.4-.34.6-.49a7.31,7.31,0,0,1,1.23-.76,5.43,5.43,0,0,1,1.26-.45,5,5,0,0,1,1.32-.27,5.61,5.61,0,0,1,1.35.12,5.24,5.24,0,0,1,1.32.3,12.79,12.79,0,0,1,2.62,1.44A11.32,11.32,0,0,1,345.69,405.55Z" fill="#3fa9f5"/><path d="M366.78,391.87a8.24,8.24,0,0,1,2.33,6.54,9.23,9.23,0,0,1-1.09,3.52,10.33,10.33,0,0,1-2.65,3,9.81,9.81,0,0,1-3.68,1.75,8.31,8.31,0,0,1-1.9.28,9,9,0,0,1-1.89-.16,7.77,7.77,0,0,1-5.56-4.13,10.62,10.62,0,0,1-1-6.79,8.32,8.32,0,0,1,.43-1.52,10.33,10.33,0,0,1,.64-1.44,8,8,0,0,1,2.06-2.33,7.43,7.43,0,0,1,2.86-1.37,8.7,8.7,0,0,1,3.23-.28A9.87,9.87,0,0,1,366.78,391.87Z" fill="#3fa9f5"/><path d="M383.13,372.55a8.89,8.89,0,0,1,1.6,12.83,9.28,9.28,0,0,1-6.35,3.49,8.44,8.44,0,0,1-6.55-2.18,9.55,9.55,0,0,1-3.05-6.17,8.8,8.8,0,0,1,1.85-6.34A9.22,9.22,0,0,1,383.13,372.55Z" fill="#3fa9f5"/><path d="M397,351.34a9,9,0,1,1-9.73,15.26A9.05,9.05,0,0,1,397,351.34Z" fill="#3fa9f5"/><path d="M410,329.6a9.05,9.05,0,1,1-12.39,3.16A9,9,0,0,1,410,329.6Z" fill="#3fa9f5"/><path d="M424.91,309.19a11.12,11.12,0,0,1,2.77,6.24,8.48,8.48,0,0,1-.16,3,7.67,7.67,0,0,1-1.34,2.89,9.29,9.29,0,0,1-12.33,2.1,8.79,8.79,0,0,1-2.12-12.83,10,10,0,0,1,3-2.68,9.68,9.68,0,0,1,3.71-1.23A7.57,7.57,0,0,1,424.91,309.19Z" fill="#3fa9f5"/><path d="M446.15,295.54a9.34,9.34,0,0,1,.49,6.86,10.07,10.07,0,0,1-1.52,3,8.5,8.5,0,0,1-2.54,2.18,7.62,7.62,0,0,1-3.12,1,9.26,9.26,0,0,1-3.23-.19,10,10,0,0,1-5.73-3.8,8.08,8.08,0,0,1-1.35-6.78,8.9,8.9,0,0,1,1.59-3.33,10.45,10.45,0,0,1,2.93-2.57,9.77,9.77,0,0,1,3.66-1.19,8.38,8.38,0,0,1,3.57.32A8.53,8.53,0,0,1,446.15,295.54Z" fill="#3fa9f5"/><path d="M469.36,285.37a9,9,0,1,1-11.85-4.76A9,9,0,0,1,469.36,285.37Z" fill="#3fa9f5"/><path d="M491.87,273.8a8.44,8.44,0,0,1,1,6.81,9,9,0,0,1-1.59,3.19,8.63,8.63,0,0,1-2.9,2.49A8.77,8.77,0,0,1,476,282.43a9.33,9.33,0,0,1,3.77-11.91,9.76,9.76,0,0,1,3.2-1,8.84,8.84,0,0,1,3.35.25A9.43,9.43,0,0,1,491.87,273.8Z" fill="#3fa9f5"/><path d="M513,259.77a9.25,9.25,0,0,1,1.24,6.78,8.76,8.76,0,0,1-1.27,3.13,9,9,0,0,1-2.48,2.53,8.8,8.8,0,0,1-3.28,1.37,9.11,9.11,0,0,1-3.49,0,8.81,8.81,0,0,1-5.76-3.78,9.13,9.13,0,0,1-.11-9.95,9.37,9.37,0,0,1,2.55-2.59,9.14,9.14,0,0,1,3.36-1.41,9,9,0,0,1,3.55,0A8.62,8.62,0,0,1,513,259.77Z" fill="#3fa9f5"/><path d="M535.58,248.42a9.31,9.31,0,0,1-.1,6.82,8.64,8.64,0,0,1-4.42,4.82,7.37,7.37,0,0,1-1.61.52,7.6,7.6,0,0,1-1.63.27,8.58,8.58,0,0,1-3.28-.45,9.73,9.73,0,0,1-5.36-4.36,8.36,8.36,0,0,1-.67-6.85,9.51,9.51,0,0,1,1.82-3.14,10.64,10.64,0,0,1,1.37-1.31,9.92,9.92,0,0,1,1.72-1,9.46,9.46,0,0,1,7.3-.34A8.63,8.63,0,0,1,535.58,248.42Z" fill="#3fa9f5"/><path d="M560,241.62a9.26,9.26,0,0,1,0,3.56,9.79,9.79,0,0,1-1.26,3.22,8.54,8.54,0,0,1-5.38,3.93,7.8,7.8,0,0,1-1.73.21,9.27,9.27,0,0,1-1.67-.06,8.81,8.81,0,0,1-3.15-1.08,9.52,9.52,0,0,1-4.34-5.35,8.49,8.49,0,0,1,.74-6.86,9.42,9.42,0,0,1,2.38-2.71,8.18,8.18,0,0,1,1.59-1,10.08,10.08,0,0,1,1.83-.61,9.56,9.56,0,0,1,7.1,1.07,8.6,8.6,0,0,1,2.52,2.36A8.92,8.92,0,0,1,560,241.62Z" fill="#3fa9f5"/><path d="M585.05,238.08a9.28,9.28,0,0,1-2,6.6,8.82,8.82,0,0,1-5.88,3.37,9.26,9.26,0,0,1-10.1-7.66,8.82,8.82,0,0,1,1.67-6.74,8.94,8.94,0,0,1,6.16-3.45,9.23,9.23,0,0,1,6.82,1.82A8.69,8.69,0,0,1,585.05,238.08Z" fill="#3fa9f5"/><path d="M610.34,236.49a9,9,0,0,1-8.54,9.38,9.3,9.3,0,0,1-6.44-2.22,9.05,9.05,0,0,1-3.09-6.14,9,9,0,0,1,8.53-9.61A9,9,0,0,1,610.34,236.49Z" fill="#3fa9f5"/><path d="M635.68,236.07A9.21,9.21,0,0,1,633,242.4a9,9,0,0,1-6.31,2.72,9.1,9.1,0,0,1-9.15-8.88,9,9,0,0,1,8.95-9.12,9.13,9.13,0,0,1,6.49,2.55A8.73,8.73,0,0,1,635.68,236.07Z" fill="#3fa9f5"/><path d="M660.77,239.32a9.46,9.46,0,0,1-3.89,5.67,8.46,8.46,0,0,1-6.44,1.48,9.82,9.82,0,0,1-3.15-1.17,9,9,0,0,1-2.45-2.23,9.77,9.77,0,0,1-1.93-6.64,8.32,8.32,0,0,1,3.33-6,9.32,9.32,0,0,1,3.27-1.55,8.51,8.51,0,0,1,3.83-.17,9.62,9.62,0,0,1,6.13,3.83A8.48,8.48,0,0,1,660.77,239.32Z" fill="#3fa9f5"/><path d="M685.08,246.44A9.06,9.06,0,0,1,667.8,241a9.05,9.05,0,1,1,17.28,5.4Z" fill="#3fa9f5"/><path d="M708.63,255.79a9,9,0,0,1-4.94,4.77,8.92,8.92,0,0,1-6.81,0,9.21,9.21,0,0,1-4.83-4.78,9.1,9.1,0,0,1-.18-6.87,8.75,8.75,0,0,1,4.79-5,8.9,8.9,0,0,1,7.05,0,9.18,9.18,0,0,1,5,4.93A8.89,8.89,0,0,1,708.63,255.79Z" fill="#3fa9f5"/><path d="M731.53,266.63a9,9,0,0,1-16.29-7.88,9,9,0,1,1,16.29,7.88Z" fill="#3fa9f5"/><path d="M753.92,278.5a9.05,9.05,0,1,1-3.66-12.28A9,9,0,0,1,753.92,278.5Z" fill="#3fa9f5"/><path d="M775.86,291.19a9.05,9.05,0,0,1-15.63-9.13,9.05,9.05,0,0,1,15.63,9.13Z" fill="#3fa9f5"/><path d="M797.41,304.53a9.05,9.05,0,0,1-15.35-9.59,9,9,0,0,1,15.35,9.59Z" fill="#3fa9f5"/><path d="M818.61,318.41A9,9,0,1,1,816,305.89,9,9,0,0,1,818.61,318.41Z" fill="#3fa9f5"/><path d="M839.49,332.79a9.05,9.05,0,1,1-2.29-12.59A9.05,9.05,0,0,1,839.49,332.79Z" fill="#3fa9f5"/><path d="M860,347.63A9.05,9.05,0,1,1,858,335,9.06,9.06,0,0,1,860,347.63Z" fill="#3fa9f5"/><path d="M879.61,363.67a9.8,9.8,0,0,1-6.31,2.72,8.84,8.84,0,0,1-6.12-2,7,7,0,0,1-1-1.12,10.56,10.56,0,0,1-1-1.41,9.13,9.13,0,0,1,.66-9.92,8.88,8.88,0,0,1,6-3.46,9,9,0,0,1,3.49.24,8.72,8.72,0,0,1,1.73.68,9.92,9.92,0,0,1,5.12,7.82A8.28,8.28,0,0,1,879.61,363.67Z" fill="#3fa9f5"/><path d="M894.63,384a9.58,9.58,0,0,1-6.78.9,8.52,8.52,0,0,1-5.38-3.56,8.71,8.71,0,0,1-1.35-6.28,9.66,9.66,0,0,1,3.34-6,8.29,8.29,0,0,1,6.66-1.87,9.32,9.32,0,0,1,6.23,4,9.55,9.55,0,0,1,1.48,7.25A8.45,8.45,0,0,1,894.63,384Z" fill="#3fa9f5"/><path d="M904.05,407.45a9.67,9.67,0,0,1-6.83-.74,8.91,8.91,0,0,1-4.37-4.84,8.65,8.65,0,0,1-.47-3.28,8.84,8.84,0,0,1,.74-3.21,9.83,9.83,0,0,1,4.79-4.94,8.3,8.3,0,0,1,6.91-.09,9.1,9.1,0,0,1,5,5.42,9.16,9.16,0,0,1-.36,7.32A8.38,8.38,0,0,1,904.05,407.45Z" fill="#3fa9f5"/><path d="M908.17,432.41a9.35,9.35,0,0,1-6.54-2.09,8.79,8.79,0,0,1-3.28-5.71,8.6,8.6,0,0,1,1.66-6.36,9.38,9.38,0,0,1,5.71-3.76,8.58,8.58,0,0,1,6.8,1.43,9.51,9.51,0,0,1,3.67,6.28,9.25,9.25,0,0,1-1.88,7A8.57,8.57,0,0,1,908.17,432.41Z" fill="#3fa9f5"/><path d="M904,457.12a10.64,10.64,0,0,1-4.93-4.78,8.27,8.27,0,0,1-.82-5.92,6.46,6.46,0,0,1,1.24-2.68,11.44,11.44,0,0,1,1.06-1.14,8.44,8.44,0,0,1,1.19-1,10.64,10.64,0,0,1,6.56-1.95,7.82,7.82,0,0,1,6.09,3.34,8.92,8.92,0,0,1,.94,1.66,7.74,7.74,0,0,1,.51,1.89,11.44,11.44,0,0,1-.12,4.23,9.62,9.62,0,0,1-4.8,6.23A7.8,7.8,0,0,1,904,457.12Z" fill="#3fa9f5"/><path d="M889.05,477.42a9.89,9.89,0,0,1-2.69-6.34,9.13,9.13,0,0,1,.43-3.22A7.2,7.2,0,0,1,888.3,465a8.9,8.9,0,0,1,2.46-2,9.11,9.11,0,0,1,3.09-.93,10,10,0,0,1,6.67,1.35,8.18,8.18,0,0,1,3.83,5.84,9.69,9.69,0,0,1-2.22,7.24,10.92,10.92,0,0,1-3.1,2.51,9.21,9.21,0,0,1-3.57.92A8.22,8.22,0,0,1,889.05,477.42Z" fill="#3fa9f5"/><path d="M869,492.84a9.28,9.28,0,0,1-1.27-6.74,8.72,8.72,0,0,1,9.9-7.17,9.53,9.53,0,0,1,6,3.3,8.46,8.46,0,0,1,1.92,6.65,9.41,9.41,0,0,1-10.83,7.84A8.62,8.62,0,0,1,869,492.84Z" fill="#3fa9f5"/><path d="M846.87,505.19a9.14,9.14,0,0,1,3.8-12.07,8.74,8.74,0,0,1,6.7-.69,9.17,9.17,0,0,1,5.44,4.18,8.73,8.73,0,0,1,.87,6.87,9.32,9.32,0,0,1-4.51,5.5A8.93,8.93,0,0,1,846.87,505.19Z" fill="#3fa9f5"/><path d="M823.81,515.68a9.05,9.05,0,0,1,16.54-7.35,9,9,0,1,1-16.54,7.35Z" fill="#3fa9f5"/><path d="M800.27,525.08A9.05,9.05,0,1,1,812,530.2,9,9,0,0,1,800.27,525.08Z" fill="#3fa9f5"/><path d="M776.5,533.88a9.05,9.05,0,1,1,11.61,5.35A9.05,9.05,0,0,1,776.5,533.88Z" fill="#3fa9f5"/><path d="M752.65,542.44a9.05,9.05,0,1,1,11.55,5.42A9,9,0,0,1,752.65,542.44Z" fill="#3fa9f5"/><path d="M728.82,551.08a9.05,9.05,0,1,1,11.58,5.34A9,9,0,0,1,728.82,551.08Z" fill="#3fa9f5"/><path d="M705.14,560.11a9,9,0,1,1,11.67,5.11A9,9,0,0,1,705.14,560.11Z" fill="#3fa9f5"/><path d="M681.78,569.93a9,9,0,1,1,16.64-7.11,9,9,0,0,1-16.64,7.11Z" fill="#3fa9f5"/><path d="M659,581a8.71,8.71,0,0,1-.59-6.87,9,9,0,0,1,1.72-3.08,9.47,9.47,0,0,1,2.92-2.24,9.58,9.58,0,0,1,3.55-1,9.27,9.27,0,0,1,3.48.49,8.78,8.78,0,0,1,5.13,4.62,9.1,9.1,0,0,1,.33,6.88,8.89,8.89,0,0,1-1.72,2.94,8.72,8.72,0,0,1-2.76,2.17,8.63,8.63,0,0,1-3.4.89,9,9,0,0,1-3.37-.41A9.19,9.19,0,0,1,659,581Z" fill="#3fa9f5"/><path d="M637.28,594.06a8.66,8.66,0,0,1-1.34-6.79,9.26,9.26,0,0,1,4.16-5.82,8.92,8.92,0,0,1,12.54,3,9.19,9.19,0,0,1-3,12.27,8.87,8.87,0,0,1-6.6,1.11A9.3,9.3,0,0,1,637.28,594.06Z" fill="#3fa9f5"/><path d="M617.77,610.17a8.37,8.37,0,0,1-2.55-6.44,9.23,9.23,0,0,1,3.24-6.56,9.37,9.37,0,0,1,6.91-2.28,8.52,8.52,0,0,1,6,3.4,9.43,9.43,0,0,1,1.83,6.61,8.67,8.67,0,0,1-9.15,8A9.65,9.65,0,0,1,617.77,610.17Z" fill="#3fa9f5"/><path d="M603,630.64a8.18,8.18,0,0,1-4.45-5.38,9.4,9.4,0,0,1-.09-3.71,9.57,9.57,0,0,1,.51-1.92,9.1,9.1,0,0,1,1-1.81,10.63,10.63,0,0,1,2.79-2.84,9.18,9.18,0,0,1,3.46-1.32,8.18,8.18,0,0,1,6.65,1.85,10,10,0,0,1,3.37,6,9,9,0,0,1-.08,3.23,7.28,7.28,0,0,1-1.16,3,10.46,10.46,0,0,1-1,1.23,6.77,6.77,0,0,1-1.19,1,8.67,8.67,0,0,1-3,1.28A10,10,0,0,1,603,630.64Z" fill="#3fa9f5"/><path d="M597.12,655.07a7.92,7.92,0,0,1-6.23-3.07,9.32,9.32,0,0,1-1.73-7.49,9.46,9.46,0,0,1,1.48-3.82,9.68,9.68,0,0,1,2.72-2.63,7.86,7.86,0,0,1,6.9-.74,10.52,10.52,0,0,1,5.32,4.32,8.62,8.62,0,0,1,1.19,2.92,8.17,8.17,0,0,1,.11,3.08,8.72,8.72,0,0,1-3.29,5.2A10.39,10.39,0,0,1,597.12,655.07Z" fill="#3fa9f5"/><path d="M600.76,680.06a8.45,8.45,0,0,1-6.86-1,9.38,9.38,0,0,1-4.08-6.12,9.92,9.92,0,0,1,0-3.88,9.29,9.29,0,0,1,1.47-3.33,8.32,8.32,0,0,1,6.07-3.46,9.78,9.78,0,0,1,6.55,1.82,8.58,8.58,0,0,1,2.29,11.79A9.59,9.59,0,0,1,600.76,680.06Z" fill="#3fa9f5"/><path d="M609.92,703.66a8.89,8.89,0,0,1-12-4.77,9.28,9.28,0,0,1,0-7.22A8.53,8.53,0,0,1,603,687a9.45,9.45,0,0,1,6.86.27,8.82,8.82,0,0,1,4.7,4.68A9.19,9.19,0,0,1,609.92,703.66Z" fill="#3fa9f5"/><path d="M619.92,726.61a9.06,9.06,0,0,1-12.14-3.78,8.81,8.81,0,0,1-1-3.33,8,8,0,0,1,0-1.7l.05-.43s-.08-.33-.14-.55-.12-.48-.17-.71a6.37,6.37,0,0,1,0-2.31,4.13,4.13,0,0,1,.54-1.42,2.89,2.89,0,0,1,.34-.46c.12-.14.24-.1.36-.16.48-.13,1-.31,1.55-.49a22.93,22.93,0,0,1,3.52-1,5.61,5.61,0,0,1,3.51.42c1.07.35,2,2.32,2.78,1.34a1.63,1.63,0,0,0,.31-1.06,2.83,2.83,0,0,0,0-.41c0-.12-.09-.35,0-.24l.39.19a9.11,9.11,0,0,1,1.5,1,9.39,9.39,0,0,1,2.35,2.86A9,9,0,0,1,619.92,726.61Z" fill="#3fa9f5"/><path d="M632.92,748.34a8.38,8.38,0,0,1-6.77,1.5,9.37,9.37,0,0,1-5.95-4.26A8.83,8.83,0,0,1,623.32,733a9.25,9.25,0,0,1,12.19,3.09,8.69,8.69,0,0,1,1.06,6.44A9.61,9.61,0,0,1,632.92,748.34Z" fill="#3fa9f5"/><path d="M650.88,766.06a8.15,8.15,0,0,1-6,3.48,9.43,9.43,0,0,1-1.84,0,9.27,9.27,0,0,1-1.82-.44,9.75,9.75,0,0,1-3.44-2,10.52,10.52,0,0,1-2.37-3.19,9.44,9.44,0,0,1-.81-3.61,8.22,8.22,0,0,1,2.85-6.33,10,10,0,0,1,6.42-2.4,8.7,8.7,0,0,1,3.19.54,7.41,7.41,0,0,1,2.77,1.62,8.33,8.33,0,0,1,1.91,2.56,9.27,9.27,0,0,1,.54,1.53,8.54,8.54,0,0,1,.31,1.6A9.86,9.86,0,0,1,650.88,766.06Z" fill="#3fa9f5"/><path d="M673.38,777.58a8.35,8.35,0,0,1-4.78,5,9.46,9.46,0,0,1-3.58.67,10.37,10.37,0,0,1-3.77-.92,9.15,9.15,0,0,1-1.73-1A9.89,9.89,0,0,1,658.1,780a9.28,9.28,0,0,1-1.87-3.13A8.41,8.41,0,0,1,657,770a9.67,9.67,0,0,1,5.34-4.26,8.78,8.78,0,0,1,3.26-.5,7.82,7.82,0,0,1,1.6.23,9.23,9.23,0,0,1,1.59.52,7.8,7.8,0,0,1,2.66,2,8.83,8.83,0,0,1,1.78,2.77A9.65,9.65,0,0,1,673.38,777.58Z" fill="#3fa9f5"/><path d="M697.87,784a8.53,8.53,0,0,1-3.82,5.73,9.38,9.38,0,0,1-12.95-3,8.5,8.5,0,0,1-.84-6.86,9.42,9.42,0,0,1,4.26-5.4,8.94,8.94,0,0,1,6.54-1,9,9,0,0,1,5.43,3.85A9.41,9.41,0,0,1,697.87,784Z" fill="#3fa9f5"/><path d="M723,787a8.68,8.68,0,0,1-3.17,6.14,9.3,9.3,0,0,1-6.8,2,9.2,9.2,0,0,1-6.24-3.41,8.57,8.57,0,0,1-1.79-6.65,9.31,9.31,0,0,1,3.46-6,8.87,8.87,0,0,1,6.47-1.88,8.73,8.73,0,0,1,5.94,3.21A9.19,9.19,0,0,1,723,787Z" fill="#3fa9f5"/><path d="M748.34,788a9.05,9.05,0,1,1-18.1-.45,9.05,9.05,0,0,1,18.1.45Z" fill="#3fa9f5"/><path d="M773.65,786.93a8.42,8.42,0,0,1-2.08,6.59,9.24,9.24,0,0,1-2.85,2.15,8.68,8.68,0,0,1-3.64.93,9.3,9.3,0,0,1-6.69-2.38,8.86,8.86,0,0,1-2.81-6.33,9,9,0,0,1,2.5-6.39,8.76,8.76,0,0,1,6.09-2.88,9.22,9.22,0,0,1,3.4.51,8.84,8.84,0,0,1,2.89,1.71A9.57,9.57,0,0,1,773.65,786.93Z" fill="#3fa9f5"/><path d="M796,777.1a8.22,8.22,0,0,1,2.45,2.61,6,6,0,0,1,.91,3.54,7.8,7.8,0,0,1-.11,1,4.24,4.24,0,0,1-.31,1.1,12,12,0,0,1-1.18,2.27,14.72,14.72,0,0,1-1.89,2,6.05,6.05,0,0,1-1.11.83,12.71,12.71,0,0,1-1.19.69c-.42.22-.84.41-1.25.59a11.47,11.47,0,0,1-1.18.31,13.33,13.33,0,0,1-2.29.3,6.44,6.44,0,0,1-2-.26,8.67,8.67,0,0,1-1.79-.66,6.65,6.65,0,0,1-2.73-2.3,8.29,8.29,0,0,1-1.42-3.3,9.47,9.47,0,0,1,0-3.56,11.16,11.16,0,0,1,.43-1.63,11.92,11.92,0,0,1,.62-1.55,9.26,9.26,0,0,1,.79-1.34c.27-.42.66-.76.9-1.13a5.06,5.06,0,0,1,.89-.9c.16-.12.35-.22.5-.32a2.14,2.14,0,0,1,.39-.28,2.35,2.35,0,0,1,.44-.17l.43-.09a2.72,2.72,0,0,1,.88,0,6.57,6.57,0,0,1,1,.14c.41.11.86,0,1.34.13a27.73,27.73,0,0,1,3.24.44A9.8,9.8,0,0,1,796,777.1Z" fill="#3fa9f5"/></g></g></svg>