<svg xmlns="http://www.w3.org/2000/svg" viewBox="0 0 579.51 988"><title>zoom_1</title><g id="Layer_2" data-name="Layer 2"><g id="Layer_4" data-name="Layer 4"><path d="M90.5,988a5,5,0,0,1-4.88-4l-33-153,0-.14L.08,548.13a5,5,0,0,1,9.84-1.83L62.41,829,89,952.27l22.55-196.84a5,5,0,0,1,.54-1.77l65-123a5,5,0,0,1,2.19-2.13l59.23-29.62V480a5,5,0,0,1,1.47-3.53l41.24-41.24,36.62-97a5,5,0,0,1,9.6.92l12.41,72L362,366.76a5,5,0,0,1,1.28-1.61l81.07-67.22L569.9,3A5,5,0,0,1,579.11,7l-126,296a5.16,5.16,0,0,1-1.41,1.89l-81.19,67.33L342,429.24a5,5,0,0,1-9.4-1.39L320.7,358.94l-30.52,80.83a5.12,5.12,0,0,1-1.14,1.77L248.5,482.07V602a5,5,0,0,1-2.76,4.47l-60.56,30.29L121.37,757.5,95.47,983.57A5,5,0,0,1,90.75,988Z" fill="lime"/></g></g></svg>