<svg xmlns="http://www.w3.org/2000/svg" viewBox="0 0 2143.51 690.77"><title>zoom</title><g id="Layer_2" data-name="Layer 2"><g id="Layer_3" data-name="Layer 3"><path d="M4,599.62a9.32,9.32,0,0,1,3.15-1.81c3.24-9.64,3.61-12.15,13.9-15.56,3.14-1,20-6,22.32-3.23l9,10.53C58,586,62.65,583,69.23,581.9c2-3.43,3.72-8.16,7-10.75l1-8.71L82,559.35l1.19-9.58c10.58,3.53,12.51,6.75,15.54,17.89a96.37,96.37,0,0,0,18.22,3,75.6,75.6,0,0,0,8.28-18.3c13.5-3.64,29.68.34,44.2.35l6.53,8.25c3.77-8.81,6.26-18,10.26-26.78,19.94-5,48.5,4.38,52.46-20.29a52.89,52.89,0,0,1,13.08-5.56,62.17,62.17,0,0,0,5-13.57c11.4,4.34,19.34,13.33,22.81,25.33,5.9,3.27,5.76,3.27,8.23,10.25,21.3-4.84,16.56-24.72,26.75-37.44,6.64-8.29,15.4-14.13,21.4-23.38,5.68-8.76,10-18.59,11.6-29,1.93,7.21,4.49,14.24,5.45,21.64,6.8,2,9.84,3.39,14.38,8.63C373.44,457.6,387,452.75,391.8,454A92,92,0,0,1,394,469.68l5.79,1.56a57.38,57.38,0,0,0,7.72-14.42c.67,8.27.94,16.49,1.13,24.78,18.15-9.28,22.17-22.18,25.69-42.27.86,17.11,26.45,62.62,26.92,71.61,2,.24,10.39-3.76,12.64-6,3.05,4.12,4.14,7.09,5.69,11.8l9.65,4.45c1.47,10.52,1.37,20.91,1.38,31.53l4.44-4.45c10.52.93,20.54-1.22,31.19-1.51,3.84,5.62,9.54,8,15.56,11l6.45-4.41c1.47,2.21,5.05,1.66,7.57,2.49,2.43-2.51,5.38-4.88,7.31-7.83l12.56-1.58c5.71-16,15.27-28.59,19.24-45,4,8.08,3.47,12.67,10,19,7.92-5,16-8.5,24.59-12.25l7.32,3.29c3.12,9.23,5.76,15.84,6.3,25.73,9.68-2.22,13.66-3.58,21.66,2.47l2.6,11,7.8,4.83c.85-2.49,1.41-5.52,3.55-7.05l25.83,7.09c1.48-1.48,2-3.6,2.79-5.51,8.16-2.8,16.29-3.63,24.45-6.52,4.91-17.37,14.26-26,19.73-40.92l8.33,3c4.2,11.27,8.12,33.11,16.89,40.33,2.29,12.65,8.15,23,9.94,36.39l6.1,1.8c7.94-11.9,11.28-22.5,14.87-36.37l4.41-2.07c3.57,2.53,6.78,4.84,9,8.65,6.27.9,11.66,2.8,17.77,4.07,2.16,5.95,4.21,12,4.71,18.43l1.29-5c-.48,4.76,10.2,18,12.69,23.07,7.41-7.23,11.85-12.47,14.27-22.39a89.57,89.57,0,0,1,15.83-2.32l3.66-4.67,6.38-.73c23,29.84,32.54,42.41,32.6,80.38v-8l8.22-2.26L946,648.14c7.53,1.16,18,1.9,10.47,1.28,6.32-4.5,11.93-13.55,18.87-16.67,2,7.62,4.31,14.81,5.32,22.63l8.87,3c6.81-4.51,10.13-5.47,18-6.08l9.9-14.5c4.29,5.45,5.56,7.89,7.65,13.9,6.15-1.74,15.16-4.29,9-2.56l8.85,7c2.74-1.34,7.6-3.72,4.82-2.35,7,10.49,5.79,20.34,5.85,33,10.23-2.17,19.86-6.44,30-8.12l4.4-7.43,7-.91c3.77-6,7.69-15.31,13.17-20,2-13.63,4-26.27,4.1-40.07l3.27,7.89,5.63,1.36A45.18,45.18,0,0,1,1132,613.4c3.45,5.11,4.83,7.08,6.38,12.15l10.14,3.84c5.72-9.35,8.93-21.07,11.89-31.81,2.21,3.89,6.59,11.56,4.38,7.69,6.52,2.74,6.94,3.29,10.67,8.56l13.22-4.67a85.21,85.21,0,0,0,7.56,14c6-5.26,8.82-5.33,16.83-6l2.6-13.49c1,5.35,1.71,10.37,2.2,15.73,9.46-.83,20,.41,26.58,7.1,8.16-4.12,13.11-7.93,22.5-9.65,7.75,8.32,6.34,16.86,6.48,28,14.39,4.15,24.37,2.49,26.28,18.75,6.82,5.18,7.09,5.71,9.45,14.57,14.74-5.83,20-17.73,29.45-29.58,6.49.24,16.82-4.89,22-3.83l-.13.51c4.42-4.06,10.5-5.26,16.41-7.9,7.49-26.65,19.41-51.14,23.09-78.48l2.82,13.74c16-5.44,27-24.76,42.52-33.93l3.41,9.69,18.47,2.87c11.9-33.2,38.19-68.49,41.61-102.37,3.7,9.27,4.72,16.17,5.09,25.95,14.78,3.66,14.18,14.63,14.74,27.94,9-9.52,16.87-18.66,23.61-29.82l2.42,9.05c8.31-5,14.39-7.87,24.08-8.42l-.92.05c11.31.33,12.71,16.82,19.8,22.59.06,16.5-2.86,31.42,3.08,48,3.8-5.37,5.45-7.8,7.35-13.47,13.34,22.7,11.22,44.08,11.22,70.45" fill="none" stroke="#009245" stroke-linecap="round" stroke-linejoin="round" stroke-width="8"/><path d="M1619.32,601.12c44.12-62.65,48-156.94,84.83-224,.32,19.57-3.6,37.57,1.18,56.44l3.93-7.95c.62,7.28.9,14.5,1.13,21.8,8.58-9.44,12.41-19.14,17.89-30.6,3.6,4.62,8.32,8.34,10.48,13.8a112.87,112.87,0,0,0,15,1.86c25.72-52.12,63.67-93.27,82-149.67,3.83,11.4,6,19.62,6.61,31.71,26-5,37.05-29,64.56-31.79l4.48,15.51c3.87-15.63,4.7-33.35,21.94-38.8,9.87-24.64,30.09-40.88,42.13-64.79,12.63-25.1,10.09-68.42,34.94-113.17,4.07,5.6,8.46,12.88,15,16.2l1.63,11.44,7.17-1.7c4.54,9,6.27,11.57,15.48,15.33,2.24-3.4,6.74-8.72,8.34-13,53.5-21,53.23-57.75,81.42-105.76" fill="none" stroke="#009245" stroke-linecap="round" stroke-linejoin="round" stroke-width="8"/></g></g></svg>