<svg xmlns="http://www.w3.org/2000/svg" viewBox="0 0 1948 1234"><title>zoomline</title><g id="Layer_2" data-name="Layer 2"><g id="Layer_4" data-name="Layer 4"><polyline points="1373.5 547.22 1426 830 1459 983 1485 756 1550 633 1612 602 1612 480 1654 438 1691 340 1706 427 1735 369 1817 301 1943 5" fill="none" stroke="lime" stroke-linecap="round" stroke-linejoin="round" stroke-width="10"/><polyline points="5 1229 56 1184 74 1206 124 1156 148 1207 160 1178 248 1192 275 1156 339 1156 361 1172 373 1143 410 1090 427 1131 465 1131 488 1072 531 1115 578 1166 601 1096 644 1108 669 1083 719 1051 736 1115 789 1084 838 1140 880 1207 924 1131 937 1037 953 1065 998 1155 1051 1037 1084 1133 1133 965 1133 764 1223 943 1260 842 1291 895 1344 773 1366.55 547.51" fill="none" stroke="#000" stroke-linecap="round" stroke-linejoin="round" stroke-width="10"/></g></g></svg>